M48
; DRILL file {KiCad 5.1.9-73d0e3b20d~88~ubuntu20.04.1} date Mon Dec 28 11:38:54 2020
; FORMAT={-:-/ absolute / inch / decimal}
; #@! TF.CreationDate,2020-12-28T11:38:54+01:00
; #@! TF.GenerationSoftware,Kicad,Pcbnew,5.1.9-73d0e3b20d~88~ubuntu20.04.1
; #@! TF.FileFunction,Plated,1,4,PTH
FMAT,2
INCH
T1C0.0079
T2C0.0118
T3C0.0157
T4C0.0256
T5C0.0354
T6C0.0394
%
G90
G05
T1
X4.0645Y-2.9622
X4.082Y-3.1397
X4.082Y-3.2175
X4.082Y-3.395
X4.3308Y-4.426
X4.475Y-3.2
X4.475Y-3.2952
X4.475Y-3.3752
X4.475Y-3.5032
X4.476Y-3.018
X4.476Y-3.11
X4.6625Y-3.19
X4.778Y-3.1
X4.78Y-2.714
X4.78Y-2.739
X4.802Y-3.1
X4.805Y-2.714
X4.805Y-2.739
X4.8125Y-3.175
X4.875Y-3.5275
X4.895Y-2.729
X4.895Y-2.754
X4.895Y-2.864
X4.895Y-2.889
X4.895Y-2.914
X4.895Y-2.939
X4.9025Y-3.17
X4.92Y-2.729
X4.92Y-2.754
X4.92Y-2.864
X4.92Y-2.889
X4.92Y-2.914
X4.92Y-2.939
X4.98Y-2.985
X4.9825Y-3.17
X5.008Y-2.936
X5.01Y-2.876
X5.0425Y-2.985
X5.072Y-3.3772
X5.072Y-3.4247
X5.0725Y-3.135
X5.088Y-2.876
X5.1217Y-2.605
X5.1325Y-3.0025
X5.1525Y-3.4275
X5.1616Y-3.0536
X5.1616Y-3.1038
X5.1616Y-3.154
X5.1616Y-3.2042
X5.1616Y-3.2544
X5.1901Y-2.986
X5.2118Y-3.0536
X5.2118Y-3.1038
X5.2118Y-3.154
X5.2118Y-3.2042
X5.2118Y-3.2544
X5.215Y-3.4275
X5.2394Y-2.9857
X5.26Y-3.53
X5.262Y-3.0536
X5.262Y-3.1038
X5.262Y-3.154
X5.262Y-3.2042
X5.262Y-3.2544
X5.272Y-2.3747
X5.3025Y-2.9775
X5.3075Y-4.1975
X5.3122Y-3.0536
X5.3122Y-3.1038
X5.3122Y-3.154
X5.3122Y-3.2042
X5.3122Y-3.2544
X5.3277Y-2.9775
X5.335Y-3.3325
X5.344Y-3.67
X5.362Y-2.695
X5.3624Y-3.0536
X5.3624Y-3.1038
X5.3624Y-3.154
X5.3624Y-3.2042
X5.3624Y-3.2544
X5.3683Y-3.646
X5.3725Y-3.4025
X5.3775Y-2.985
X5.39Y-2.47
X5.39Y-2.49
X5.393Y-3.0113
X5.402Y-3.2897
X5.4175Y-3.025
X5.42Y-3.4025
X5.43Y-3.4475
X5.4425Y-3.025
X5.445Y-3.1932
X5.45Y-3.1125
X5.458Y-4.082
X5.473Y-3.3052
X5.48Y-4.062
X5.4845Y-2.8472
X5.52Y-3.045
X5.5225Y-2.985
X5.59Y-2.775
X5.595Y-2.5025
X5.595Y-2.5925
X5.613Y-3.3052
X5.6238Y-3.244
X5.625Y-3.1612
X5.66Y-2.67
X5.661Y-2.775
X5.6625Y-2.58
X5.6655Y-3.21
X5.675Y-3.0112
X5.7214Y-2.4949
X5.723Y-2.8332
X5.729Y-2.8872
X5.7333Y-2.9341
X5.7662Y-3.1544
X5.781Y-3.1292
X5.781Y-3.2292
X5.833Y-2.6892
X5.837Y-3.0152
X5.865Y-3.2272
X5.867Y-3.1812
X5.889Y-2.8832
X5.895Y-2.6892
X5.9011Y-2.5539
X5.911Y-2.9332
X5.977Y-3.1292
X6.015Y-2.8332
X6.033Y-3.0552
X6.035Y-3.0792
X6.2925Y-2.878
X6.294Y-3.092
X6.3155Y-3.3035
X6.3165Y-3.1635
X6.3213Y-3.1265
X6.356Y-2.878
X6.367Y-3.2672
X6.39Y-2.99
X6.502Y-4.368
X6.5575Y-3.03
T2
X4.14Y-4.159
X4.38Y-3.974
X4.38Y-4.008
X4.3935Y-2.3105
X4.3945Y-2.1515
X4.414Y-3.974
X4.414Y-4.008
X4.425Y-4.087
X4.448Y-3.974
X4.448Y-4.008
X4.48Y-3.974
X4.48Y-4.008
X4.4835Y-2.3125
X4.488Y-2.148
X4.514Y-3.974
X4.514Y-4.008
X4.53Y-4.048
X4.576Y-2.15
X4.577Y-2.313
X4.578Y-2.604
X4.582Y-4.248
X4.582Y-4.282
X4.582Y-4.316
X4.582Y-4.35
X4.616Y-4.248
X4.616Y-4.282
X4.616Y-4.316
X4.616Y-4.35
X4.65Y-4.248
X4.65Y-4.282
X4.65Y-4.316
X4.65Y-4.35
X4.698Y-3.968
X4.8364Y-2.1494
X4.9224Y-2.105
X4.9224Y-2.1304
X4.9504Y-2.3214
X5.0184Y-2.2954
X5.0204Y-2.2374
X5.0324Y-2.105
X5.0324Y-2.1304
X5.0714Y-2.1484
X5.0958Y-2.0702
X5.108Y-4.094
X5.12Y-2.0702
X5.1239Y-2.2129
X5.1239Y-2.2379
X5.1239Y-2.2629
X5.1239Y-2.2879
X5.13Y-4.094
X5.144Y-2.0702
X5.1514Y-2.2129
X5.1514Y-2.2379
X5.1514Y-2.2629
X5.1514Y-2.2879
X5.152Y-4.094
X5.174Y-4.094
X5.1789Y-2.2129
X5.1789Y-2.2379
X5.1789Y-2.2629
X5.1789Y-2.2879
X5.182Y-4.408
X5.196Y-4.094
X5.218Y-4.094
X5.24Y-2.334
X5.24Y-4.094
X5.252Y-2.354
X5.262Y-4.094
X5.284Y-4.094
X5.4766Y-3.7894
X5.5136Y-3.6444
X5.5136Y-3.6674
X5.5136Y-3.6914
X5.5462Y-3.7904
X5.5738Y-3.7904
X5.6013Y-3.7904
X5.638Y-3.732
X5.7966Y-3.7474
X5.8834Y-2.1764
X5.8834Y-2.2104
X5.8834Y-2.2864
X5.8834Y-2.3204
X5.9094Y-2.1764
X5.9094Y-2.2104
X5.9094Y-2.2864
X5.9094Y-2.3204
X5.9354Y-2.1764
X5.9354Y-2.2104
X5.9354Y-2.2864
X5.9354Y-2.3204
X5.962Y-2.1764
X5.962Y-2.2104
X6.0546Y-4.3674
X6.328Y-4.466
T3
X4.347Y-3.2632
X4.347Y-3.3422
X4.48Y-2.5877
X4.48Y-2.626
X4.5343Y-2.5
X4.924Y-4.332
X5.7295Y-3.9022
X5.772Y-4.4072
X5.997Y-3.9797
X5.997Y-4.0672
X6.082Y-3.6872
X6.175Y-4.11
X6.2758Y-3.6998
X6.46Y-4.174
X6.46Y-4.34
T4
X5.0275Y-2.49
X5.0275Y-2.54
X5.0775Y-2.49
X5.0775Y-2.54
X5.1275Y-2.49
X5.1275Y-2.54
X5.1775Y-2.49
X5.1775Y-2.54
X5.2275Y-2.49
X5.2275Y-2.54
X6.515Y-2.925
X6.515Y-2.975
X6.565Y-2.925
X6.565Y-2.975
X6.615Y-2.925
X6.615Y-2.975
T5
X4.165Y-2.555
X4.344Y-2.555
X4.61Y-3.875
X6.05Y-2.195
T6
X6.548Y-2.567
X6.548Y-2.6654
T0
M30
