G04 #@! TF.GenerationSoftware,KiCad,Pcbnew,5.1.9-73d0e3b20d~88~ubuntu20.04.1*
G04 #@! TF.CreationDate,2020-12-28T11:38:45+01:00*
G04 #@! TF.ProjectId,cam,63616d2e-6b69-4636-9164-5f7063625858,rev?*
G04 #@! TF.SameCoordinates,Original*
G04 #@! TF.FileFunction,Paste,Top*
G04 #@! TF.FilePolarity,Positive*
%FSLAX46Y46*%
G04 Gerber Fmt 4.6, Leading zero omitted, Abs format (unit mm)*
G04 Created by KiCad (PCBNEW 5.1.9-73d0e3b20d~88~ubuntu20.04.1) date 2020-12-28 11:38:45*
%MOMM*%
%LPD*%
G01*
G04 APERTURE LIST*
%ADD10C,0.010000*%
%ADD11R,1.300000X1.900000*%
%ADD12R,1.300000X0.300000*%
%ADD13R,2.200000X1.800000*%
%ADD14O,1.600000X0.600000*%
%ADD15O,0.600000X1.600000*%
%ADD16R,1.600000X2.200000*%
%ADD17R,1.200000X1.000000*%
%ADD18R,1.700000X1.500000*%
%ADD19R,1.600000X1.300000*%
%ADD20R,0.650000X1.060000*%
%ADD21R,0.900000X0.800000*%
%ADD22R,1.000000X0.700000*%
%ADD23R,1.050000X2.200000*%
%ADD24R,1.000000X1.050000*%
%ADD25R,1.800000X2.500000*%
G04 APERTURE END LIST*
D10*
G36*
X137199600Y-56500300D02*
G01*
X137199600Y-55975300D01*
X137724600Y-55450300D01*
X140374600Y-55450300D01*
X140899600Y-55975300D01*
X140899600Y-56500300D01*
X139934600Y-56500300D01*
X139490100Y-56050300D01*
X138609100Y-56050300D01*
X138164600Y-56500300D01*
X137199600Y-56500300D01*
G37*
X137199600Y-56500300D02*
X137199600Y-55975300D01*
X137724600Y-55450300D01*
X140374600Y-55450300D01*
X140899600Y-55975300D01*
X140899600Y-56500300D01*
X139934600Y-56500300D01*
X139490100Y-56050300D01*
X138609100Y-56050300D01*
X138164600Y-56500300D01*
X137199600Y-56500300D01*
G36*
X137199600Y-58100300D02*
G01*
X137199600Y-58625300D01*
X137724600Y-59150300D01*
X140374600Y-59150300D01*
X140899600Y-58625300D01*
X140899600Y-58100300D01*
X139934600Y-58100300D01*
X139490100Y-58550300D01*
X138609100Y-58550300D01*
X138164600Y-58100300D01*
X137199600Y-58100300D01*
G37*
X137199600Y-58100300D02*
X137199600Y-58625300D01*
X137724600Y-59150300D01*
X140374600Y-59150300D01*
X140899600Y-58625300D01*
X140899600Y-58100300D01*
X139934600Y-58100300D01*
X139490100Y-58550300D01*
X138609100Y-58550300D01*
X138164600Y-58100300D01*
X137199600Y-58100300D01*
G36*
G01*
X145078800Y-75643600D02*
X145078800Y-75943600D01*
G75*
G02*
X144928800Y-76093600I-150000J0D01*
G01*
X143628800Y-76093600D01*
G75*
G02*
X143478800Y-75943600I0J150000D01*
G01*
X143478800Y-75643600D01*
G75*
G02*
X143628800Y-75493600I150000J0D01*
G01*
X144928800Y-75493600D01*
G75*
G02*
X145078800Y-75643600I0J-150000D01*
G01*
G37*
G36*
G01*
X145078800Y-74373600D02*
X145078800Y-74673600D01*
G75*
G02*
X144928800Y-74823600I-150000J0D01*
G01*
X143628800Y-74823600D01*
G75*
G02*
X143478800Y-74673600I0J150000D01*
G01*
X143478800Y-74373600D01*
G75*
G02*
X143628800Y-74223600I150000J0D01*
G01*
X144928800Y-74223600D01*
G75*
G02*
X145078800Y-74373600I0J-150000D01*
G01*
G37*
G36*
G01*
X145078800Y-73103600D02*
X145078800Y-73403600D01*
G75*
G02*
X144928800Y-73553600I-150000J0D01*
G01*
X143628800Y-73553600D01*
G75*
G02*
X143478800Y-73403600I0J150000D01*
G01*
X143478800Y-73103600D01*
G75*
G02*
X143628800Y-72953600I150000J0D01*
G01*
X144928800Y-72953600D01*
G75*
G02*
X145078800Y-73103600I0J-150000D01*
G01*
G37*
G36*
G01*
X145078800Y-71833600D02*
X145078800Y-72133600D01*
G75*
G02*
X144928800Y-72283600I-150000J0D01*
G01*
X143628800Y-72283600D01*
G75*
G02*
X143478800Y-72133600I0J150000D01*
G01*
X143478800Y-71833600D01*
G75*
G02*
X143628800Y-71683600I150000J0D01*
G01*
X144928800Y-71683600D01*
G75*
G02*
X145078800Y-71833600I0J-150000D01*
G01*
G37*
G36*
G01*
X152278800Y-71833600D02*
X152278800Y-72133600D01*
G75*
G02*
X152128800Y-72283600I-150000J0D01*
G01*
X150828800Y-72283600D01*
G75*
G02*
X150678800Y-72133600I0J150000D01*
G01*
X150678800Y-71833600D01*
G75*
G02*
X150828800Y-71683600I150000J0D01*
G01*
X152128800Y-71683600D01*
G75*
G02*
X152278800Y-71833600I0J-150000D01*
G01*
G37*
G36*
G01*
X152278800Y-73103600D02*
X152278800Y-73403600D01*
G75*
G02*
X152128800Y-73553600I-150000J0D01*
G01*
X150828800Y-73553600D01*
G75*
G02*
X150678800Y-73403600I0J150000D01*
G01*
X150678800Y-73103600D01*
G75*
G02*
X150828800Y-72953600I150000J0D01*
G01*
X152128800Y-72953600D01*
G75*
G02*
X152278800Y-73103600I0J-150000D01*
G01*
G37*
G36*
G01*
X152278800Y-74373600D02*
X152278800Y-74673600D01*
G75*
G02*
X152128800Y-74823600I-150000J0D01*
G01*
X150828800Y-74823600D01*
G75*
G02*
X150678800Y-74673600I0J150000D01*
G01*
X150678800Y-74373600D01*
G75*
G02*
X150828800Y-74223600I150000J0D01*
G01*
X152128800Y-74223600D01*
G75*
G02*
X152278800Y-74373600I0J-150000D01*
G01*
G37*
G36*
G01*
X152278800Y-75643600D02*
X152278800Y-75943600D01*
G75*
G02*
X152128800Y-76093600I-150000J0D01*
G01*
X150828800Y-76093600D01*
G75*
G02*
X150678800Y-75943600I0J150000D01*
G01*
X150678800Y-75643600D01*
G75*
G02*
X150828800Y-75493600I150000J0D01*
G01*
X152128800Y-75493600D01*
G75*
G02*
X152278800Y-75643600I0J-150000D01*
G01*
G37*
G36*
G01*
X146429600Y-83162000D02*
X146429600Y-83462000D01*
G75*
G02*
X146279600Y-83612000I-150000J0D01*
G01*
X144629600Y-83612000D01*
G75*
G02*
X144479600Y-83462000I0J150000D01*
G01*
X144479600Y-83162000D01*
G75*
G02*
X144629600Y-83012000I150000J0D01*
G01*
X146279600Y-83012000D01*
G75*
G02*
X146429600Y-83162000I0J-150000D01*
G01*
G37*
G36*
G01*
X146429600Y-81892000D02*
X146429600Y-82192000D01*
G75*
G02*
X146279600Y-82342000I-150000J0D01*
G01*
X144629600Y-82342000D01*
G75*
G02*
X144479600Y-82192000I0J150000D01*
G01*
X144479600Y-81892000D01*
G75*
G02*
X144629600Y-81742000I150000J0D01*
G01*
X146279600Y-81742000D01*
G75*
G02*
X146429600Y-81892000I0J-150000D01*
G01*
G37*
G36*
G01*
X146429600Y-80622000D02*
X146429600Y-80922000D01*
G75*
G02*
X146279600Y-81072000I-150000J0D01*
G01*
X144629600Y-81072000D01*
G75*
G02*
X144479600Y-80922000I0J150000D01*
G01*
X144479600Y-80622000D01*
G75*
G02*
X144629600Y-80472000I150000J0D01*
G01*
X146279600Y-80472000D01*
G75*
G02*
X146429600Y-80622000I0J-150000D01*
G01*
G37*
G36*
G01*
X146429600Y-79352000D02*
X146429600Y-79652000D01*
G75*
G02*
X146279600Y-79802000I-150000J0D01*
G01*
X144629600Y-79802000D01*
G75*
G02*
X144479600Y-79652000I0J150000D01*
G01*
X144479600Y-79352000D01*
G75*
G02*
X144629600Y-79202000I150000J0D01*
G01*
X146279600Y-79202000D01*
G75*
G02*
X146429600Y-79352000I0J-150000D01*
G01*
G37*
G36*
G01*
X151379600Y-79352000D02*
X151379600Y-79652000D01*
G75*
G02*
X151229600Y-79802000I-150000J0D01*
G01*
X149579600Y-79802000D01*
G75*
G02*
X149429600Y-79652000I0J150000D01*
G01*
X149429600Y-79352000D01*
G75*
G02*
X149579600Y-79202000I150000J0D01*
G01*
X151229600Y-79202000D01*
G75*
G02*
X151379600Y-79352000I0J-150000D01*
G01*
G37*
G36*
G01*
X151379600Y-80622000D02*
X151379600Y-80922000D01*
G75*
G02*
X151229600Y-81072000I-150000J0D01*
G01*
X149579600Y-81072000D01*
G75*
G02*
X149429600Y-80922000I0J150000D01*
G01*
X149429600Y-80622000D01*
G75*
G02*
X149579600Y-80472000I150000J0D01*
G01*
X151229600Y-80472000D01*
G75*
G02*
X151379600Y-80622000I0J-150000D01*
G01*
G37*
G36*
G01*
X151379600Y-81892000D02*
X151379600Y-82192000D01*
G75*
G02*
X151229600Y-82342000I-150000J0D01*
G01*
X149579600Y-82342000D01*
G75*
G02*
X149429600Y-82192000I0J150000D01*
G01*
X149429600Y-81892000D01*
G75*
G02*
X149579600Y-81742000I150000J0D01*
G01*
X151229600Y-81742000D01*
G75*
G02*
X151379600Y-81892000I0J-150000D01*
G01*
G37*
G36*
G01*
X151379600Y-83162000D02*
X151379600Y-83462000D01*
G75*
G02*
X151229600Y-83612000I-150000J0D01*
G01*
X149579600Y-83612000D01*
G75*
G02*
X149429600Y-83462000I0J150000D01*
G01*
X149429600Y-83162000D01*
G75*
G02*
X149579600Y-83012000I150000J0D01*
G01*
X151229600Y-83012000D01*
G75*
G02*
X151379600Y-83162000I0J-150000D01*
G01*
G37*
G36*
G01*
X161427450Y-85020900D02*
X161939950Y-85020900D01*
G75*
G02*
X162158700Y-85239650I0J-218750D01*
G01*
X162158700Y-85677150D01*
G75*
G02*
X161939950Y-85895900I-218750J0D01*
G01*
X161427450Y-85895900D01*
G75*
G02*
X161208700Y-85677150I0J218750D01*
G01*
X161208700Y-85239650D01*
G75*
G02*
X161427450Y-85020900I218750J0D01*
G01*
G37*
G36*
G01*
X161427450Y-83445900D02*
X161939950Y-83445900D01*
G75*
G02*
X162158700Y-83664650I0J-218750D01*
G01*
X162158700Y-84102150D01*
G75*
G02*
X161939950Y-84320900I-218750J0D01*
G01*
X161427450Y-84320900D01*
G75*
G02*
X161208700Y-84102150I0J218750D01*
G01*
X161208700Y-83664650D01*
G75*
G02*
X161427450Y-83445900I218750J0D01*
G01*
G37*
G36*
G01*
X159590450Y-84320900D02*
X159077950Y-84320900D01*
G75*
G02*
X158859200Y-84102150I0J218750D01*
G01*
X158859200Y-83664650D01*
G75*
G02*
X159077950Y-83445900I218750J0D01*
G01*
X159590450Y-83445900D01*
G75*
G02*
X159809200Y-83664650I0J-218750D01*
G01*
X159809200Y-84102150D01*
G75*
G02*
X159590450Y-84320900I-218750J0D01*
G01*
G37*
G36*
G01*
X159590450Y-85895900D02*
X159077950Y-85895900D01*
G75*
G02*
X158859200Y-85677150I0J218750D01*
G01*
X158859200Y-85239650D01*
G75*
G02*
X159077950Y-85020900I218750J0D01*
G01*
X159590450Y-85020900D01*
G75*
G02*
X159809200Y-85239650I0J-218750D01*
G01*
X159809200Y-85677150D01*
G75*
G02*
X159590450Y-85895900I-218750J0D01*
G01*
G37*
D11*
X126018000Y-89003900D03*
X131518000Y-89003900D03*
X131518000Y-92203900D03*
X126018000Y-92203900D03*
D12*
X102150000Y-79250000D03*
X102150000Y-79750000D03*
X102150000Y-80250000D03*
X102150000Y-80750000D03*
X102150000Y-81250000D03*
X102150000Y-81750000D03*
X102150000Y-82250000D03*
X102150000Y-82750000D03*
X102150000Y-83250000D03*
X102150000Y-83750000D03*
X102150000Y-84250000D03*
X102150000Y-84750000D03*
X102150000Y-85250000D03*
X102150000Y-85750000D03*
X102150000Y-86250000D03*
X102150000Y-86750000D03*
X102150000Y-87250000D03*
X102150000Y-87750000D03*
X102150000Y-88250000D03*
X102150000Y-88750000D03*
X102150000Y-89250000D03*
X102150000Y-89750000D03*
X102150000Y-90250000D03*
X102150000Y-90750000D03*
D13*
X105400000Y-92650000D03*
X105400000Y-77350000D03*
G36*
G01*
X160980000Y-76069000D02*
X160980000Y-75569000D01*
G75*
G02*
X161205000Y-75344000I225000J0D01*
G01*
X161655000Y-75344000D01*
G75*
G02*
X161880000Y-75569000I0J-225000D01*
G01*
X161880000Y-76069000D01*
G75*
G02*
X161655000Y-76294000I-225000J0D01*
G01*
X161205000Y-76294000D01*
G75*
G02*
X160980000Y-76069000I0J225000D01*
G01*
G37*
G36*
G01*
X159430000Y-76069000D02*
X159430000Y-75569000D01*
G75*
G02*
X159655000Y-75344000I225000J0D01*
G01*
X160105000Y-75344000D01*
G75*
G02*
X160330000Y-75569000I0J-225000D01*
G01*
X160330000Y-76069000D01*
G75*
G02*
X160105000Y-76294000I-225000J0D01*
G01*
X159655000Y-76294000D01*
G75*
G02*
X159430000Y-76069000I0J225000D01*
G01*
G37*
G36*
G01*
X135025083Y-82316317D02*
X135025083Y-81731883D01*
G75*
G02*
X135275083Y-81481883I250000J0D01*
G01*
X135859517Y-81481883D01*
G75*
G02*
X136109517Y-81731883I0J-250000D01*
G01*
X136109517Y-82316317D01*
G75*
G02*
X135859517Y-82566317I-250000J0D01*
G01*
X135275083Y-82566317D01*
G75*
G02*
X135025083Y-82316317I0J250000D01*
G01*
G37*
G36*
G01*
X135025083Y-81041317D02*
X135025083Y-80456883D01*
G75*
G02*
X135275083Y-80206883I250000J0D01*
G01*
X135859517Y-80206883D01*
G75*
G02*
X136109517Y-80456883I0J-250000D01*
G01*
X136109517Y-81041317D01*
G75*
G02*
X135859517Y-81291317I-250000J0D01*
G01*
X135275083Y-81291317D01*
G75*
G02*
X135025083Y-81041317I0J250000D01*
G01*
G37*
G36*
G01*
X135025083Y-79766317D02*
X135025083Y-79181883D01*
G75*
G02*
X135275083Y-78931883I250000J0D01*
G01*
X135859517Y-78931883D01*
G75*
G02*
X136109517Y-79181883I0J-250000D01*
G01*
X136109517Y-79766317D01*
G75*
G02*
X135859517Y-80016317I-250000J0D01*
G01*
X135275083Y-80016317D01*
G75*
G02*
X135025083Y-79766317I0J250000D01*
G01*
G37*
G36*
G01*
X135025083Y-78491317D02*
X135025083Y-77906883D01*
G75*
G02*
X135275083Y-77656883I250000J0D01*
G01*
X135859517Y-77656883D01*
G75*
G02*
X136109517Y-77906883I0J-250000D01*
G01*
X136109517Y-78491317D01*
G75*
G02*
X135859517Y-78741317I-250000J0D01*
G01*
X135275083Y-78741317D01*
G75*
G02*
X135025083Y-78491317I0J250000D01*
G01*
G37*
G36*
G01*
X133750083Y-82316317D02*
X133750083Y-81731883D01*
G75*
G02*
X134000083Y-81481883I250000J0D01*
G01*
X134584517Y-81481883D01*
G75*
G02*
X134834517Y-81731883I0J-250000D01*
G01*
X134834517Y-82316317D01*
G75*
G02*
X134584517Y-82566317I-250000J0D01*
G01*
X134000083Y-82566317D01*
G75*
G02*
X133750083Y-82316317I0J250000D01*
G01*
G37*
G36*
G01*
X133750083Y-81041317D02*
X133750083Y-80456883D01*
G75*
G02*
X134000083Y-80206883I250000J0D01*
G01*
X134584517Y-80206883D01*
G75*
G02*
X134834517Y-80456883I0J-250000D01*
G01*
X134834517Y-81041317D01*
G75*
G02*
X134584517Y-81291317I-250000J0D01*
G01*
X134000083Y-81291317D01*
G75*
G02*
X133750083Y-81041317I0J250000D01*
G01*
G37*
G36*
G01*
X133750083Y-79766317D02*
X133750083Y-79181883D01*
G75*
G02*
X134000083Y-78931883I250000J0D01*
G01*
X134584517Y-78931883D01*
G75*
G02*
X134834517Y-79181883I0J-250000D01*
G01*
X134834517Y-79766317D01*
G75*
G02*
X134584517Y-80016317I-250000J0D01*
G01*
X134000083Y-80016317D01*
G75*
G02*
X133750083Y-79766317I0J250000D01*
G01*
G37*
G36*
G01*
X133750083Y-78491317D02*
X133750083Y-77906883D01*
G75*
G02*
X134000083Y-77656883I250000J0D01*
G01*
X134584517Y-77656883D01*
G75*
G02*
X134834517Y-77906883I0J-250000D01*
G01*
X134834517Y-78491317D01*
G75*
G02*
X134584517Y-78741317I-250000J0D01*
G01*
X134000083Y-78741317D01*
G75*
G02*
X133750083Y-78491317I0J250000D01*
G01*
G37*
G36*
G01*
X132475083Y-82316317D02*
X132475083Y-81731883D01*
G75*
G02*
X132725083Y-81481883I250000J0D01*
G01*
X133309517Y-81481883D01*
G75*
G02*
X133559517Y-81731883I0J-250000D01*
G01*
X133559517Y-82316317D01*
G75*
G02*
X133309517Y-82566317I-250000J0D01*
G01*
X132725083Y-82566317D01*
G75*
G02*
X132475083Y-82316317I0J250000D01*
G01*
G37*
G36*
G01*
X132475083Y-81041317D02*
X132475083Y-80456883D01*
G75*
G02*
X132725083Y-80206883I250000J0D01*
G01*
X133309517Y-80206883D01*
G75*
G02*
X133559517Y-80456883I0J-250000D01*
G01*
X133559517Y-81041317D01*
G75*
G02*
X133309517Y-81291317I-250000J0D01*
G01*
X132725083Y-81291317D01*
G75*
G02*
X132475083Y-81041317I0J250000D01*
G01*
G37*
G36*
G01*
X132475083Y-79766317D02*
X132475083Y-79181883D01*
G75*
G02*
X132725083Y-78931883I250000J0D01*
G01*
X133309517Y-78931883D01*
G75*
G02*
X133559517Y-79181883I0J-250000D01*
G01*
X133559517Y-79766317D01*
G75*
G02*
X133309517Y-80016317I-250000J0D01*
G01*
X132725083Y-80016317D01*
G75*
G02*
X132475083Y-79766317I0J250000D01*
G01*
G37*
G36*
G01*
X132475083Y-78491317D02*
X132475083Y-77906883D01*
G75*
G02*
X132725083Y-77656883I250000J0D01*
G01*
X133309517Y-77656883D01*
G75*
G02*
X133559517Y-77906883I0J-250000D01*
G01*
X133559517Y-78491317D01*
G75*
G02*
X133309517Y-78741317I-250000J0D01*
G01*
X132725083Y-78741317D01*
G75*
G02*
X132475083Y-78491317I0J250000D01*
G01*
G37*
G36*
G01*
X131200083Y-82316317D02*
X131200083Y-81731883D01*
G75*
G02*
X131450083Y-81481883I250000J0D01*
G01*
X132034517Y-81481883D01*
G75*
G02*
X132284517Y-81731883I0J-250000D01*
G01*
X132284517Y-82316317D01*
G75*
G02*
X132034517Y-82566317I-250000J0D01*
G01*
X131450083Y-82566317D01*
G75*
G02*
X131200083Y-82316317I0J250000D01*
G01*
G37*
G36*
G01*
X131200083Y-81041317D02*
X131200083Y-80456883D01*
G75*
G02*
X131450083Y-80206883I250000J0D01*
G01*
X132034517Y-80206883D01*
G75*
G02*
X132284517Y-80456883I0J-250000D01*
G01*
X132284517Y-81041317D01*
G75*
G02*
X132034517Y-81291317I-250000J0D01*
G01*
X131450083Y-81291317D01*
G75*
G02*
X131200083Y-81041317I0J250000D01*
G01*
G37*
G36*
G01*
X131200083Y-79766317D02*
X131200083Y-79181883D01*
G75*
G02*
X131450083Y-78931883I250000J0D01*
G01*
X132034517Y-78931883D01*
G75*
G02*
X132284517Y-79181883I0J-250000D01*
G01*
X132284517Y-79766317D01*
G75*
G02*
X132034517Y-80016317I-250000J0D01*
G01*
X131450083Y-80016317D01*
G75*
G02*
X131200083Y-79766317I0J250000D01*
G01*
G37*
G36*
G01*
X131200083Y-78491317D02*
X131200083Y-77906883D01*
G75*
G02*
X131450083Y-77656883I250000J0D01*
G01*
X132034517Y-77656883D01*
G75*
G02*
X132284517Y-77906883I0J-250000D01*
G01*
X132284517Y-78491317D01*
G75*
G02*
X132034517Y-78741317I-250000J0D01*
G01*
X131450083Y-78741317D01*
G75*
G02*
X131200083Y-78491317I0J250000D01*
G01*
G37*
G36*
G01*
X130954800Y-77061600D02*
X130954800Y-76286600D01*
G75*
G02*
X131004800Y-76236600I50000J0D01*
G01*
X131104800Y-76236600D01*
G75*
G02*
X131154800Y-76286600I0J-50000D01*
G01*
X131154800Y-77061600D01*
G75*
G02*
X131104800Y-77111600I-50000J0D01*
G01*
X131004800Y-77111600D01*
G75*
G02*
X130954800Y-77061600I0J50000D01*
G01*
G37*
G36*
G01*
X131354800Y-77061600D02*
X131354800Y-76286600D01*
G75*
G02*
X131404800Y-76236600I50000J0D01*
G01*
X131504800Y-76236600D01*
G75*
G02*
X131554800Y-76286600I0J-50000D01*
G01*
X131554800Y-77061600D01*
G75*
G02*
X131504800Y-77111600I-50000J0D01*
G01*
X131404800Y-77111600D01*
G75*
G02*
X131354800Y-77061600I0J50000D01*
G01*
G37*
G36*
G01*
X131754800Y-77061600D02*
X131754800Y-76286600D01*
G75*
G02*
X131804800Y-76236600I50000J0D01*
G01*
X131904800Y-76236600D01*
G75*
G02*
X131954800Y-76286600I0J-50000D01*
G01*
X131954800Y-77061600D01*
G75*
G02*
X131904800Y-77111600I-50000J0D01*
G01*
X131804800Y-77111600D01*
G75*
G02*
X131754800Y-77061600I0J50000D01*
G01*
G37*
G36*
G01*
X132154800Y-77061600D02*
X132154800Y-76286600D01*
G75*
G02*
X132204800Y-76236600I50000J0D01*
G01*
X132304800Y-76236600D01*
G75*
G02*
X132354800Y-76286600I0J-50000D01*
G01*
X132354800Y-77061600D01*
G75*
G02*
X132304800Y-77111600I-50000J0D01*
G01*
X132204800Y-77111600D01*
G75*
G02*
X132154800Y-77061600I0J50000D01*
G01*
G37*
G36*
G01*
X132554800Y-77061600D02*
X132554800Y-76286600D01*
G75*
G02*
X132604800Y-76236600I50000J0D01*
G01*
X132704800Y-76236600D01*
G75*
G02*
X132754800Y-76286600I0J-50000D01*
G01*
X132754800Y-77061600D01*
G75*
G02*
X132704800Y-77111600I-50000J0D01*
G01*
X132604800Y-77111600D01*
G75*
G02*
X132554800Y-77061600I0J50000D01*
G01*
G37*
G36*
G01*
X132954800Y-77061600D02*
X132954800Y-76286600D01*
G75*
G02*
X133004800Y-76236600I50000J0D01*
G01*
X133104800Y-76236600D01*
G75*
G02*
X133154800Y-76286600I0J-50000D01*
G01*
X133154800Y-77061600D01*
G75*
G02*
X133104800Y-77111600I-50000J0D01*
G01*
X133004800Y-77111600D01*
G75*
G02*
X132954800Y-77061600I0J50000D01*
G01*
G37*
G36*
G01*
X133354800Y-77061600D02*
X133354800Y-76286600D01*
G75*
G02*
X133404800Y-76236600I50000J0D01*
G01*
X133504800Y-76236600D01*
G75*
G02*
X133554800Y-76286600I0J-50000D01*
G01*
X133554800Y-77061600D01*
G75*
G02*
X133504800Y-77111600I-50000J0D01*
G01*
X133404800Y-77111600D01*
G75*
G02*
X133354800Y-77061600I0J50000D01*
G01*
G37*
G36*
G01*
X133754800Y-77061600D02*
X133754800Y-76286600D01*
G75*
G02*
X133804800Y-76236600I50000J0D01*
G01*
X133904800Y-76236600D01*
G75*
G02*
X133954800Y-76286600I0J-50000D01*
G01*
X133954800Y-77061600D01*
G75*
G02*
X133904800Y-77111600I-50000J0D01*
G01*
X133804800Y-77111600D01*
G75*
G02*
X133754800Y-77061600I0J50000D01*
G01*
G37*
G36*
G01*
X134154800Y-77061600D02*
X134154800Y-76286600D01*
G75*
G02*
X134204800Y-76236600I50000J0D01*
G01*
X134304800Y-76236600D01*
G75*
G02*
X134354800Y-76286600I0J-50000D01*
G01*
X134354800Y-77061600D01*
G75*
G02*
X134304800Y-77111600I-50000J0D01*
G01*
X134204800Y-77111600D01*
G75*
G02*
X134154800Y-77061600I0J50000D01*
G01*
G37*
G36*
G01*
X134554800Y-77061600D02*
X134554800Y-76286600D01*
G75*
G02*
X134604800Y-76236600I50000J0D01*
G01*
X134704800Y-76236600D01*
G75*
G02*
X134754800Y-76286600I0J-50000D01*
G01*
X134754800Y-77061600D01*
G75*
G02*
X134704800Y-77111600I-50000J0D01*
G01*
X134604800Y-77111600D01*
G75*
G02*
X134554800Y-77061600I0J50000D01*
G01*
G37*
G36*
G01*
X134954800Y-77061600D02*
X134954800Y-76286600D01*
G75*
G02*
X135004800Y-76236600I50000J0D01*
G01*
X135104800Y-76236600D01*
G75*
G02*
X135154800Y-76286600I0J-50000D01*
G01*
X135154800Y-77061600D01*
G75*
G02*
X135104800Y-77111600I-50000J0D01*
G01*
X135004800Y-77111600D01*
G75*
G02*
X134954800Y-77061600I0J50000D01*
G01*
G37*
G36*
G01*
X135354800Y-77061600D02*
X135354800Y-76286600D01*
G75*
G02*
X135404800Y-76236600I50000J0D01*
G01*
X135504800Y-76236600D01*
G75*
G02*
X135554800Y-76286600I0J-50000D01*
G01*
X135554800Y-77061600D01*
G75*
G02*
X135504800Y-77111600I-50000J0D01*
G01*
X135404800Y-77111600D01*
G75*
G02*
X135354800Y-77061600I0J50000D01*
G01*
G37*
G36*
G01*
X135754800Y-77061600D02*
X135754800Y-76286600D01*
G75*
G02*
X135804800Y-76236600I50000J0D01*
G01*
X135904800Y-76236600D01*
G75*
G02*
X135954800Y-76286600I0J-50000D01*
G01*
X135954800Y-77061600D01*
G75*
G02*
X135904800Y-77111600I-50000J0D01*
G01*
X135804800Y-77111600D01*
G75*
G02*
X135754800Y-77061600I0J50000D01*
G01*
G37*
G36*
G01*
X136154800Y-77061600D02*
X136154800Y-76286600D01*
G75*
G02*
X136204800Y-76236600I50000J0D01*
G01*
X136304800Y-76236600D01*
G75*
G02*
X136354800Y-76286600I0J-50000D01*
G01*
X136354800Y-77061600D01*
G75*
G02*
X136304800Y-77111600I-50000J0D01*
G01*
X136204800Y-77111600D01*
G75*
G02*
X136154800Y-77061600I0J50000D01*
G01*
G37*
G36*
G01*
X136654800Y-77561600D02*
X136654800Y-77461600D01*
G75*
G02*
X136704800Y-77411600I50000J0D01*
G01*
X137479800Y-77411600D01*
G75*
G02*
X137529800Y-77461600I0J-50000D01*
G01*
X137529800Y-77561600D01*
G75*
G02*
X137479800Y-77611600I-50000J0D01*
G01*
X136704800Y-77611600D01*
G75*
G02*
X136654800Y-77561600I0J50000D01*
G01*
G37*
G36*
G01*
X136654800Y-77961600D02*
X136654800Y-77861600D01*
G75*
G02*
X136704800Y-77811600I50000J0D01*
G01*
X137479800Y-77811600D01*
G75*
G02*
X137529800Y-77861600I0J-50000D01*
G01*
X137529800Y-77961600D01*
G75*
G02*
X137479800Y-78011600I-50000J0D01*
G01*
X136704800Y-78011600D01*
G75*
G02*
X136654800Y-77961600I0J50000D01*
G01*
G37*
G36*
G01*
X136654800Y-78361600D02*
X136654800Y-78261600D01*
G75*
G02*
X136704800Y-78211600I50000J0D01*
G01*
X137479800Y-78211600D01*
G75*
G02*
X137529800Y-78261600I0J-50000D01*
G01*
X137529800Y-78361600D01*
G75*
G02*
X137479800Y-78411600I-50000J0D01*
G01*
X136704800Y-78411600D01*
G75*
G02*
X136654800Y-78361600I0J50000D01*
G01*
G37*
G36*
G01*
X136654800Y-78761600D02*
X136654800Y-78661600D01*
G75*
G02*
X136704800Y-78611600I50000J0D01*
G01*
X137479800Y-78611600D01*
G75*
G02*
X137529800Y-78661600I0J-50000D01*
G01*
X137529800Y-78761600D01*
G75*
G02*
X137479800Y-78811600I-50000J0D01*
G01*
X136704800Y-78811600D01*
G75*
G02*
X136654800Y-78761600I0J50000D01*
G01*
G37*
G36*
G01*
X136654800Y-79161600D02*
X136654800Y-79061600D01*
G75*
G02*
X136704800Y-79011600I50000J0D01*
G01*
X137479800Y-79011600D01*
G75*
G02*
X137529800Y-79061600I0J-50000D01*
G01*
X137529800Y-79161600D01*
G75*
G02*
X137479800Y-79211600I-50000J0D01*
G01*
X136704800Y-79211600D01*
G75*
G02*
X136654800Y-79161600I0J50000D01*
G01*
G37*
G36*
G01*
X136654800Y-79561600D02*
X136654800Y-79461600D01*
G75*
G02*
X136704800Y-79411600I50000J0D01*
G01*
X137479800Y-79411600D01*
G75*
G02*
X137529800Y-79461600I0J-50000D01*
G01*
X137529800Y-79561600D01*
G75*
G02*
X137479800Y-79611600I-50000J0D01*
G01*
X136704800Y-79611600D01*
G75*
G02*
X136654800Y-79561600I0J50000D01*
G01*
G37*
G36*
G01*
X136654800Y-79961600D02*
X136654800Y-79861600D01*
G75*
G02*
X136704800Y-79811600I50000J0D01*
G01*
X137479800Y-79811600D01*
G75*
G02*
X137529800Y-79861600I0J-50000D01*
G01*
X137529800Y-79961600D01*
G75*
G02*
X137479800Y-80011600I-50000J0D01*
G01*
X136704800Y-80011600D01*
G75*
G02*
X136654800Y-79961600I0J50000D01*
G01*
G37*
G36*
G01*
X136654800Y-80361600D02*
X136654800Y-80261600D01*
G75*
G02*
X136704800Y-80211600I50000J0D01*
G01*
X137479800Y-80211600D01*
G75*
G02*
X137529800Y-80261600I0J-50000D01*
G01*
X137529800Y-80361600D01*
G75*
G02*
X137479800Y-80411600I-50000J0D01*
G01*
X136704800Y-80411600D01*
G75*
G02*
X136654800Y-80361600I0J50000D01*
G01*
G37*
G36*
G01*
X136654800Y-80761600D02*
X136654800Y-80661600D01*
G75*
G02*
X136704800Y-80611600I50000J0D01*
G01*
X137479800Y-80611600D01*
G75*
G02*
X137529800Y-80661600I0J-50000D01*
G01*
X137529800Y-80761600D01*
G75*
G02*
X137479800Y-80811600I-50000J0D01*
G01*
X136704800Y-80811600D01*
G75*
G02*
X136654800Y-80761600I0J50000D01*
G01*
G37*
G36*
G01*
X136654800Y-81161600D02*
X136654800Y-81061600D01*
G75*
G02*
X136704800Y-81011600I50000J0D01*
G01*
X137479800Y-81011600D01*
G75*
G02*
X137529800Y-81061600I0J-50000D01*
G01*
X137529800Y-81161600D01*
G75*
G02*
X137479800Y-81211600I-50000J0D01*
G01*
X136704800Y-81211600D01*
G75*
G02*
X136654800Y-81161600I0J50000D01*
G01*
G37*
G36*
G01*
X136654800Y-81561600D02*
X136654800Y-81461600D01*
G75*
G02*
X136704800Y-81411600I50000J0D01*
G01*
X137479800Y-81411600D01*
G75*
G02*
X137529800Y-81461600I0J-50000D01*
G01*
X137529800Y-81561600D01*
G75*
G02*
X137479800Y-81611600I-50000J0D01*
G01*
X136704800Y-81611600D01*
G75*
G02*
X136654800Y-81561600I0J50000D01*
G01*
G37*
G36*
G01*
X136654800Y-81961600D02*
X136654800Y-81861600D01*
G75*
G02*
X136704800Y-81811600I50000J0D01*
G01*
X137479800Y-81811600D01*
G75*
G02*
X137529800Y-81861600I0J-50000D01*
G01*
X137529800Y-81961600D01*
G75*
G02*
X137479800Y-82011600I-50000J0D01*
G01*
X136704800Y-82011600D01*
G75*
G02*
X136654800Y-81961600I0J50000D01*
G01*
G37*
G36*
G01*
X136654800Y-82361600D02*
X136654800Y-82261600D01*
G75*
G02*
X136704800Y-82211600I50000J0D01*
G01*
X137479800Y-82211600D01*
G75*
G02*
X137529800Y-82261600I0J-50000D01*
G01*
X137529800Y-82361600D01*
G75*
G02*
X137479800Y-82411600I-50000J0D01*
G01*
X136704800Y-82411600D01*
G75*
G02*
X136654800Y-82361600I0J50000D01*
G01*
G37*
G36*
G01*
X136654800Y-82761600D02*
X136654800Y-82661600D01*
G75*
G02*
X136704800Y-82611600I50000J0D01*
G01*
X137479800Y-82611600D01*
G75*
G02*
X137529800Y-82661600I0J-50000D01*
G01*
X137529800Y-82761600D01*
G75*
G02*
X137479800Y-82811600I-50000J0D01*
G01*
X136704800Y-82811600D01*
G75*
G02*
X136654800Y-82761600I0J50000D01*
G01*
G37*
G36*
G01*
X136154800Y-83936600D02*
X136154800Y-83161600D01*
G75*
G02*
X136204800Y-83111600I50000J0D01*
G01*
X136304800Y-83111600D01*
G75*
G02*
X136354800Y-83161600I0J-50000D01*
G01*
X136354800Y-83936600D01*
G75*
G02*
X136304800Y-83986600I-50000J0D01*
G01*
X136204800Y-83986600D01*
G75*
G02*
X136154800Y-83936600I0J50000D01*
G01*
G37*
G36*
G01*
X135754800Y-83936600D02*
X135754800Y-83161600D01*
G75*
G02*
X135804800Y-83111600I50000J0D01*
G01*
X135904800Y-83111600D01*
G75*
G02*
X135954800Y-83161600I0J-50000D01*
G01*
X135954800Y-83936600D01*
G75*
G02*
X135904800Y-83986600I-50000J0D01*
G01*
X135804800Y-83986600D01*
G75*
G02*
X135754800Y-83936600I0J50000D01*
G01*
G37*
G36*
G01*
X135354800Y-83936600D02*
X135354800Y-83161600D01*
G75*
G02*
X135404800Y-83111600I50000J0D01*
G01*
X135504800Y-83111600D01*
G75*
G02*
X135554800Y-83161600I0J-50000D01*
G01*
X135554800Y-83936600D01*
G75*
G02*
X135504800Y-83986600I-50000J0D01*
G01*
X135404800Y-83986600D01*
G75*
G02*
X135354800Y-83936600I0J50000D01*
G01*
G37*
G36*
G01*
X134954800Y-83936600D02*
X134954800Y-83161600D01*
G75*
G02*
X135004800Y-83111600I50000J0D01*
G01*
X135104800Y-83111600D01*
G75*
G02*
X135154800Y-83161600I0J-50000D01*
G01*
X135154800Y-83936600D01*
G75*
G02*
X135104800Y-83986600I-50000J0D01*
G01*
X135004800Y-83986600D01*
G75*
G02*
X134954800Y-83936600I0J50000D01*
G01*
G37*
G36*
G01*
X134554800Y-83936600D02*
X134554800Y-83161600D01*
G75*
G02*
X134604800Y-83111600I50000J0D01*
G01*
X134704800Y-83111600D01*
G75*
G02*
X134754800Y-83161600I0J-50000D01*
G01*
X134754800Y-83936600D01*
G75*
G02*
X134704800Y-83986600I-50000J0D01*
G01*
X134604800Y-83986600D01*
G75*
G02*
X134554800Y-83936600I0J50000D01*
G01*
G37*
G36*
G01*
X134154800Y-83936600D02*
X134154800Y-83161600D01*
G75*
G02*
X134204800Y-83111600I50000J0D01*
G01*
X134304800Y-83111600D01*
G75*
G02*
X134354800Y-83161600I0J-50000D01*
G01*
X134354800Y-83936600D01*
G75*
G02*
X134304800Y-83986600I-50000J0D01*
G01*
X134204800Y-83986600D01*
G75*
G02*
X134154800Y-83936600I0J50000D01*
G01*
G37*
G36*
G01*
X133754800Y-83936600D02*
X133754800Y-83161600D01*
G75*
G02*
X133804800Y-83111600I50000J0D01*
G01*
X133904800Y-83111600D01*
G75*
G02*
X133954800Y-83161600I0J-50000D01*
G01*
X133954800Y-83936600D01*
G75*
G02*
X133904800Y-83986600I-50000J0D01*
G01*
X133804800Y-83986600D01*
G75*
G02*
X133754800Y-83936600I0J50000D01*
G01*
G37*
G36*
G01*
X133354800Y-83936600D02*
X133354800Y-83161600D01*
G75*
G02*
X133404800Y-83111600I50000J0D01*
G01*
X133504800Y-83111600D01*
G75*
G02*
X133554800Y-83161600I0J-50000D01*
G01*
X133554800Y-83936600D01*
G75*
G02*
X133504800Y-83986600I-50000J0D01*
G01*
X133404800Y-83986600D01*
G75*
G02*
X133354800Y-83936600I0J50000D01*
G01*
G37*
G36*
G01*
X132954800Y-83936600D02*
X132954800Y-83161600D01*
G75*
G02*
X133004800Y-83111600I50000J0D01*
G01*
X133104800Y-83111600D01*
G75*
G02*
X133154800Y-83161600I0J-50000D01*
G01*
X133154800Y-83936600D01*
G75*
G02*
X133104800Y-83986600I-50000J0D01*
G01*
X133004800Y-83986600D01*
G75*
G02*
X132954800Y-83936600I0J50000D01*
G01*
G37*
G36*
G01*
X132554800Y-83936600D02*
X132554800Y-83161600D01*
G75*
G02*
X132604800Y-83111600I50000J0D01*
G01*
X132704800Y-83111600D01*
G75*
G02*
X132754800Y-83161600I0J-50000D01*
G01*
X132754800Y-83936600D01*
G75*
G02*
X132704800Y-83986600I-50000J0D01*
G01*
X132604800Y-83986600D01*
G75*
G02*
X132554800Y-83936600I0J50000D01*
G01*
G37*
G36*
G01*
X132154800Y-83936600D02*
X132154800Y-83161600D01*
G75*
G02*
X132204800Y-83111600I50000J0D01*
G01*
X132304800Y-83111600D01*
G75*
G02*
X132354800Y-83161600I0J-50000D01*
G01*
X132354800Y-83936600D01*
G75*
G02*
X132304800Y-83986600I-50000J0D01*
G01*
X132204800Y-83986600D01*
G75*
G02*
X132154800Y-83936600I0J50000D01*
G01*
G37*
G36*
G01*
X131754800Y-83936600D02*
X131754800Y-83161600D01*
G75*
G02*
X131804800Y-83111600I50000J0D01*
G01*
X131904800Y-83111600D01*
G75*
G02*
X131954800Y-83161600I0J-50000D01*
G01*
X131954800Y-83936600D01*
G75*
G02*
X131904800Y-83986600I-50000J0D01*
G01*
X131804800Y-83986600D01*
G75*
G02*
X131754800Y-83936600I0J50000D01*
G01*
G37*
G36*
G01*
X131354800Y-83936600D02*
X131354800Y-83161600D01*
G75*
G02*
X131404800Y-83111600I50000J0D01*
G01*
X131504800Y-83111600D01*
G75*
G02*
X131554800Y-83161600I0J-50000D01*
G01*
X131554800Y-83936600D01*
G75*
G02*
X131504800Y-83986600I-50000J0D01*
G01*
X131404800Y-83986600D01*
G75*
G02*
X131354800Y-83936600I0J50000D01*
G01*
G37*
G36*
G01*
X130954800Y-83936600D02*
X130954800Y-83161600D01*
G75*
G02*
X131004800Y-83111600I50000J0D01*
G01*
X131104800Y-83111600D01*
G75*
G02*
X131154800Y-83161600I0J-50000D01*
G01*
X131154800Y-83936600D01*
G75*
G02*
X131104800Y-83986600I-50000J0D01*
G01*
X131004800Y-83986600D01*
G75*
G02*
X130954800Y-83936600I0J50000D01*
G01*
G37*
G36*
G01*
X129779800Y-82761600D02*
X129779800Y-82661600D01*
G75*
G02*
X129829800Y-82611600I50000J0D01*
G01*
X130604800Y-82611600D01*
G75*
G02*
X130654800Y-82661600I0J-50000D01*
G01*
X130654800Y-82761600D01*
G75*
G02*
X130604800Y-82811600I-50000J0D01*
G01*
X129829800Y-82811600D01*
G75*
G02*
X129779800Y-82761600I0J50000D01*
G01*
G37*
G36*
G01*
X129779800Y-82361600D02*
X129779800Y-82261600D01*
G75*
G02*
X129829800Y-82211600I50000J0D01*
G01*
X130604800Y-82211600D01*
G75*
G02*
X130654800Y-82261600I0J-50000D01*
G01*
X130654800Y-82361600D01*
G75*
G02*
X130604800Y-82411600I-50000J0D01*
G01*
X129829800Y-82411600D01*
G75*
G02*
X129779800Y-82361600I0J50000D01*
G01*
G37*
G36*
G01*
X129779800Y-81961600D02*
X129779800Y-81861600D01*
G75*
G02*
X129829800Y-81811600I50000J0D01*
G01*
X130604800Y-81811600D01*
G75*
G02*
X130654800Y-81861600I0J-50000D01*
G01*
X130654800Y-81961600D01*
G75*
G02*
X130604800Y-82011600I-50000J0D01*
G01*
X129829800Y-82011600D01*
G75*
G02*
X129779800Y-81961600I0J50000D01*
G01*
G37*
G36*
G01*
X129779800Y-81561600D02*
X129779800Y-81461600D01*
G75*
G02*
X129829800Y-81411600I50000J0D01*
G01*
X130604800Y-81411600D01*
G75*
G02*
X130654800Y-81461600I0J-50000D01*
G01*
X130654800Y-81561600D01*
G75*
G02*
X130604800Y-81611600I-50000J0D01*
G01*
X129829800Y-81611600D01*
G75*
G02*
X129779800Y-81561600I0J50000D01*
G01*
G37*
G36*
G01*
X129779800Y-81161600D02*
X129779800Y-81061600D01*
G75*
G02*
X129829800Y-81011600I50000J0D01*
G01*
X130604800Y-81011600D01*
G75*
G02*
X130654800Y-81061600I0J-50000D01*
G01*
X130654800Y-81161600D01*
G75*
G02*
X130604800Y-81211600I-50000J0D01*
G01*
X129829800Y-81211600D01*
G75*
G02*
X129779800Y-81161600I0J50000D01*
G01*
G37*
G36*
G01*
X129779800Y-80761600D02*
X129779800Y-80661600D01*
G75*
G02*
X129829800Y-80611600I50000J0D01*
G01*
X130604800Y-80611600D01*
G75*
G02*
X130654800Y-80661600I0J-50000D01*
G01*
X130654800Y-80761600D01*
G75*
G02*
X130604800Y-80811600I-50000J0D01*
G01*
X129829800Y-80811600D01*
G75*
G02*
X129779800Y-80761600I0J50000D01*
G01*
G37*
G36*
G01*
X129779800Y-80361600D02*
X129779800Y-80261600D01*
G75*
G02*
X129829800Y-80211600I50000J0D01*
G01*
X130604800Y-80211600D01*
G75*
G02*
X130654800Y-80261600I0J-50000D01*
G01*
X130654800Y-80361600D01*
G75*
G02*
X130604800Y-80411600I-50000J0D01*
G01*
X129829800Y-80411600D01*
G75*
G02*
X129779800Y-80361600I0J50000D01*
G01*
G37*
G36*
G01*
X129779800Y-79961600D02*
X129779800Y-79861600D01*
G75*
G02*
X129829800Y-79811600I50000J0D01*
G01*
X130604800Y-79811600D01*
G75*
G02*
X130654800Y-79861600I0J-50000D01*
G01*
X130654800Y-79961600D01*
G75*
G02*
X130604800Y-80011600I-50000J0D01*
G01*
X129829800Y-80011600D01*
G75*
G02*
X129779800Y-79961600I0J50000D01*
G01*
G37*
G36*
G01*
X129779800Y-79561600D02*
X129779800Y-79461600D01*
G75*
G02*
X129829800Y-79411600I50000J0D01*
G01*
X130604800Y-79411600D01*
G75*
G02*
X130654800Y-79461600I0J-50000D01*
G01*
X130654800Y-79561600D01*
G75*
G02*
X130604800Y-79611600I-50000J0D01*
G01*
X129829800Y-79611600D01*
G75*
G02*
X129779800Y-79561600I0J50000D01*
G01*
G37*
G36*
G01*
X129779800Y-79161600D02*
X129779800Y-79061600D01*
G75*
G02*
X129829800Y-79011600I50000J0D01*
G01*
X130604800Y-79011600D01*
G75*
G02*
X130654800Y-79061600I0J-50000D01*
G01*
X130654800Y-79161600D01*
G75*
G02*
X130604800Y-79211600I-50000J0D01*
G01*
X129829800Y-79211600D01*
G75*
G02*
X129779800Y-79161600I0J50000D01*
G01*
G37*
G36*
G01*
X129779800Y-78761600D02*
X129779800Y-78661600D01*
G75*
G02*
X129829800Y-78611600I50000J0D01*
G01*
X130604800Y-78611600D01*
G75*
G02*
X130654800Y-78661600I0J-50000D01*
G01*
X130654800Y-78761600D01*
G75*
G02*
X130604800Y-78811600I-50000J0D01*
G01*
X129829800Y-78811600D01*
G75*
G02*
X129779800Y-78761600I0J50000D01*
G01*
G37*
G36*
G01*
X129779800Y-78361600D02*
X129779800Y-78261600D01*
G75*
G02*
X129829800Y-78211600I50000J0D01*
G01*
X130604800Y-78211600D01*
G75*
G02*
X130654800Y-78261600I0J-50000D01*
G01*
X130654800Y-78361600D01*
G75*
G02*
X130604800Y-78411600I-50000J0D01*
G01*
X129829800Y-78411600D01*
G75*
G02*
X129779800Y-78361600I0J50000D01*
G01*
G37*
G36*
G01*
X129779800Y-77961600D02*
X129779800Y-77861600D01*
G75*
G02*
X129829800Y-77811600I50000J0D01*
G01*
X130604800Y-77811600D01*
G75*
G02*
X130654800Y-77861600I0J-50000D01*
G01*
X130654800Y-77961600D01*
G75*
G02*
X130604800Y-78011600I-50000J0D01*
G01*
X129829800Y-78011600D01*
G75*
G02*
X129779800Y-77961600I0J50000D01*
G01*
G37*
G36*
G01*
X129779800Y-77561600D02*
X129779800Y-77461600D01*
G75*
G02*
X129829800Y-77411600I50000J0D01*
G01*
X130604800Y-77411600D01*
G75*
G02*
X130654800Y-77461600I0J-50000D01*
G01*
X130654800Y-77561600D01*
G75*
G02*
X130604800Y-77611600I-50000J0D01*
G01*
X129829800Y-77611600D01*
G75*
G02*
X129779800Y-77561600I0J50000D01*
G01*
G37*
G36*
G01*
X165425800Y-112249400D02*
X164875800Y-112249400D01*
G75*
G02*
X164675800Y-112049400I0J200000D01*
G01*
X164675800Y-111649400D01*
G75*
G02*
X164875800Y-111449400I200000J0D01*
G01*
X165425800Y-111449400D01*
G75*
G02*
X165625800Y-111649400I0J-200000D01*
G01*
X165625800Y-112049400D01*
G75*
G02*
X165425800Y-112249400I-200000J0D01*
G01*
G37*
G36*
G01*
X165425800Y-113899400D02*
X164875800Y-113899400D01*
G75*
G02*
X164675800Y-113699400I0J200000D01*
G01*
X164675800Y-113299400D01*
G75*
G02*
X164875800Y-113099400I200000J0D01*
G01*
X165425800Y-113099400D01*
G75*
G02*
X165625800Y-113299400I0J-200000D01*
G01*
X165625800Y-113699400D01*
G75*
G02*
X165425800Y-113899400I-200000J0D01*
G01*
G37*
G36*
G01*
X143363500Y-67077000D02*
X143363500Y-66527000D01*
G75*
G02*
X143563500Y-66327000I200000J0D01*
G01*
X143963500Y-66327000D01*
G75*
G02*
X144163500Y-66527000I0J-200000D01*
G01*
X144163500Y-67077000D01*
G75*
G02*
X143963500Y-67277000I-200000J0D01*
G01*
X143563500Y-67277000D01*
G75*
G02*
X143363500Y-67077000I0J200000D01*
G01*
G37*
G36*
G01*
X141713500Y-67077000D02*
X141713500Y-66527000D01*
G75*
G02*
X141913500Y-66327000I200000J0D01*
G01*
X142313500Y-66327000D01*
G75*
G02*
X142513500Y-66527000I0J-200000D01*
G01*
X142513500Y-67077000D01*
G75*
G02*
X142313500Y-67277000I-200000J0D01*
G01*
X141913500Y-67277000D01*
G75*
G02*
X141713500Y-67077000I0J200000D01*
G01*
G37*
G36*
G01*
X143363500Y-64791000D02*
X143363500Y-64241000D01*
G75*
G02*
X143563500Y-64041000I200000J0D01*
G01*
X143963500Y-64041000D01*
G75*
G02*
X144163500Y-64241000I0J-200000D01*
G01*
X144163500Y-64791000D01*
G75*
G02*
X143963500Y-64991000I-200000J0D01*
G01*
X143563500Y-64991000D01*
G75*
G02*
X143363500Y-64791000I0J200000D01*
G01*
G37*
G36*
G01*
X141713500Y-64791000D02*
X141713500Y-64241000D01*
G75*
G02*
X141913500Y-64041000I200000J0D01*
G01*
X142313500Y-64041000D01*
G75*
G02*
X142513500Y-64241000I0J-200000D01*
G01*
X142513500Y-64791000D01*
G75*
G02*
X142313500Y-64991000I-200000J0D01*
G01*
X141913500Y-64991000D01*
G75*
G02*
X141713500Y-64791000I0J200000D01*
G01*
G37*
G36*
G01*
X153776000Y-75736000D02*
X154326000Y-75736000D01*
G75*
G02*
X154526000Y-75936000I0J-200000D01*
G01*
X154526000Y-76336000D01*
G75*
G02*
X154326000Y-76536000I-200000J0D01*
G01*
X153776000Y-76536000D01*
G75*
G02*
X153576000Y-76336000I0J200000D01*
G01*
X153576000Y-75936000D01*
G75*
G02*
X153776000Y-75736000I200000J0D01*
G01*
G37*
G36*
G01*
X153776000Y-74086000D02*
X154326000Y-74086000D01*
G75*
G02*
X154526000Y-74286000I0J-200000D01*
G01*
X154526000Y-74686000D01*
G75*
G02*
X154326000Y-74886000I-200000J0D01*
G01*
X153776000Y-74886000D01*
G75*
G02*
X153576000Y-74686000I0J200000D01*
G01*
X153576000Y-74286000D01*
G75*
G02*
X153776000Y-74086000I200000J0D01*
G01*
G37*
G36*
G01*
X140672000Y-73512000D02*
X140672000Y-74062000D01*
G75*
G02*
X140472000Y-74262000I-200000J0D01*
G01*
X140072000Y-74262000D01*
G75*
G02*
X139872000Y-74062000I0J200000D01*
G01*
X139872000Y-73512000D01*
G75*
G02*
X140072000Y-73312000I200000J0D01*
G01*
X140472000Y-73312000D01*
G75*
G02*
X140672000Y-73512000I0J-200000D01*
G01*
G37*
G36*
G01*
X142322000Y-73512000D02*
X142322000Y-74062000D01*
G75*
G02*
X142122000Y-74262000I-200000J0D01*
G01*
X141722000Y-74262000D01*
G75*
G02*
X141522000Y-74062000I0J200000D01*
G01*
X141522000Y-73512000D01*
G75*
G02*
X141722000Y-73312000I200000J0D01*
G01*
X142122000Y-73312000D01*
G75*
G02*
X142322000Y-73512000I0J-200000D01*
G01*
G37*
G36*
G01*
X140672000Y-71226000D02*
X140672000Y-71776000D01*
G75*
G02*
X140472000Y-71976000I-200000J0D01*
G01*
X140072000Y-71976000D01*
G75*
G02*
X139872000Y-71776000I0J200000D01*
G01*
X139872000Y-71226000D01*
G75*
G02*
X140072000Y-71026000I200000J0D01*
G01*
X140472000Y-71026000D01*
G75*
G02*
X140672000Y-71226000I0J-200000D01*
G01*
G37*
G36*
G01*
X142322000Y-71226000D02*
X142322000Y-71776000D01*
G75*
G02*
X142122000Y-71976000I-200000J0D01*
G01*
X141722000Y-71976000D01*
G75*
G02*
X141522000Y-71776000I0J200000D01*
G01*
X141522000Y-71226000D01*
G75*
G02*
X141722000Y-71026000I200000J0D01*
G01*
X142122000Y-71026000D01*
G75*
G02*
X142322000Y-71226000I0J-200000D01*
G01*
G37*
G36*
G01*
X139069000Y-76906000D02*
X139569000Y-76906000D01*
G75*
G02*
X139794000Y-77131000I0J-225000D01*
G01*
X139794000Y-77581000D01*
G75*
G02*
X139569000Y-77806000I-225000J0D01*
G01*
X139069000Y-77806000D01*
G75*
G02*
X138844000Y-77581000I0J225000D01*
G01*
X138844000Y-77131000D01*
G75*
G02*
X139069000Y-76906000I225000J0D01*
G01*
G37*
G36*
G01*
X139069000Y-75356000D02*
X139569000Y-75356000D01*
G75*
G02*
X139794000Y-75581000I0J-225000D01*
G01*
X139794000Y-76031000D01*
G75*
G02*
X139569000Y-76256000I-225000J0D01*
G01*
X139069000Y-76256000D01*
G75*
G02*
X138844000Y-76031000I0J225000D01*
G01*
X138844000Y-75581000D01*
G75*
G02*
X139069000Y-75356000I225000J0D01*
G01*
G37*
G36*
G01*
X148630600Y-67019800D02*
X148630600Y-67519800D01*
G75*
G02*
X148405600Y-67744800I-225000J0D01*
G01*
X147955600Y-67744800D01*
G75*
G02*
X147730600Y-67519800I0J225000D01*
G01*
X147730600Y-67019800D01*
G75*
G02*
X147955600Y-66794800I225000J0D01*
G01*
X148405600Y-66794800D01*
G75*
G02*
X148630600Y-67019800I0J-225000D01*
G01*
G37*
G36*
G01*
X150180600Y-67019800D02*
X150180600Y-67519800D01*
G75*
G02*
X149955600Y-67744800I-225000J0D01*
G01*
X149505600Y-67744800D01*
G75*
G02*
X149280600Y-67519800I0J225000D01*
G01*
X149280600Y-67019800D01*
G75*
G02*
X149505600Y-66794800I225000J0D01*
G01*
X149955600Y-66794800D01*
G75*
G02*
X150180600Y-67019800I0J-225000D01*
G01*
G37*
G36*
G01*
X143752600Y-57434800D02*
X144252600Y-57434800D01*
G75*
G02*
X144477600Y-57659800I0J-225000D01*
G01*
X144477600Y-58109800D01*
G75*
G02*
X144252600Y-58334800I-225000J0D01*
G01*
X143752600Y-58334800D01*
G75*
G02*
X143527600Y-58109800I0J225000D01*
G01*
X143527600Y-57659800D01*
G75*
G02*
X143752600Y-57434800I225000J0D01*
G01*
G37*
G36*
G01*
X143752600Y-55884800D02*
X144252600Y-55884800D01*
G75*
G02*
X144477600Y-56109800I0J-225000D01*
G01*
X144477600Y-56559800D01*
G75*
G02*
X144252600Y-56784800I-225000J0D01*
G01*
X143752600Y-56784800D01*
G75*
G02*
X143527600Y-56559800I0J225000D01*
G01*
X143527600Y-56109800D01*
G75*
G02*
X143752600Y-55884800I225000J0D01*
G01*
G37*
G36*
G01*
X125226000Y-80030200D02*
X125726000Y-80030200D01*
G75*
G02*
X125951000Y-80255200I0J-225000D01*
G01*
X125951000Y-80705200D01*
G75*
G02*
X125726000Y-80930200I-225000J0D01*
G01*
X125226000Y-80930200D01*
G75*
G02*
X125001000Y-80705200I0J225000D01*
G01*
X125001000Y-80255200D01*
G75*
G02*
X125226000Y-80030200I225000J0D01*
G01*
G37*
G36*
G01*
X125226000Y-78480200D02*
X125726000Y-78480200D01*
G75*
G02*
X125951000Y-78705200I0J-225000D01*
G01*
X125951000Y-79155200D01*
G75*
G02*
X125726000Y-79380200I-225000J0D01*
G01*
X125226000Y-79380200D01*
G75*
G02*
X125001000Y-79155200I0J225000D01*
G01*
X125001000Y-78705200D01*
G75*
G02*
X125226000Y-78480200I225000J0D01*
G01*
G37*
G36*
G01*
X135370600Y-62260800D02*
X135870600Y-62260800D01*
G75*
G02*
X136095600Y-62485800I0J-225000D01*
G01*
X136095600Y-62935800D01*
G75*
G02*
X135870600Y-63160800I-225000J0D01*
G01*
X135370600Y-63160800D01*
G75*
G02*
X135145600Y-62935800I0J225000D01*
G01*
X135145600Y-62485800D01*
G75*
G02*
X135370600Y-62260800I225000J0D01*
G01*
G37*
G36*
G01*
X135370600Y-60710800D02*
X135870600Y-60710800D01*
G75*
G02*
X136095600Y-60935800I0J-225000D01*
G01*
X136095600Y-61385800D01*
G75*
G02*
X135870600Y-61610800I-225000J0D01*
G01*
X135370600Y-61610800D01*
G75*
G02*
X135145600Y-61385800I0J225000D01*
G01*
X135145600Y-60935800D01*
G75*
G02*
X135370600Y-60710800I225000J0D01*
G01*
G37*
G36*
G01*
X130450400Y-73487400D02*
X129950400Y-73487400D01*
G75*
G02*
X129725400Y-73262400I0J225000D01*
G01*
X129725400Y-72812400D01*
G75*
G02*
X129950400Y-72587400I225000J0D01*
G01*
X130450400Y-72587400D01*
G75*
G02*
X130675400Y-72812400I0J-225000D01*
G01*
X130675400Y-73262400D01*
G75*
G02*
X130450400Y-73487400I-225000J0D01*
G01*
G37*
G36*
G01*
X130450400Y-75037400D02*
X129950400Y-75037400D01*
G75*
G02*
X129725400Y-74812400I0J225000D01*
G01*
X129725400Y-74362400D01*
G75*
G02*
X129950400Y-74137400I225000J0D01*
G01*
X130450400Y-74137400D01*
G75*
G02*
X130675400Y-74362400I0J-225000D01*
G01*
X130675400Y-74812400D01*
G75*
G02*
X130450400Y-75037400I-225000J0D01*
G01*
G37*
G36*
G01*
X128418400Y-73487400D02*
X127918400Y-73487400D01*
G75*
G02*
X127693400Y-73262400I0J225000D01*
G01*
X127693400Y-72812400D01*
G75*
G02*
X127918400Y-72587400I225000J0D01*
G01*
X128418400Y-72587400D01*
G75*
G02*
X128643400Y-72812400I0J-225000D01*
G01*
X128643400Y-73262400D01*
G75*
G02*
X128418400Y-73487400I-225000J0D01*
G01*
G37*
G36*
G01*
X128418400Y-75037400D02*
X127918400Y-75037400D01*
G75*
G02*
X127693400Y-74812400I0J225000D01*
G01*
X127693400Y-74362400D01*
G75*
G02*
X127918400Y-74137400I225000J0D01*
G01*
X128418400Y-74137400D01*
G75*
G02*
X128643400Y-74362400I0J-225000D01*
G01*
X128643400Y-74812400D01*
G75*
G02*
X128418400Y-75037400I-225000J0D01*
G01*
G37*
D14*
X136173400Y-109871400D03*
X136173400Y-108771400D03*
X136173400Y-107671400D03*
X136173400Y-106571400D03*
X136173400Y-105471400D03*
X136173400Y-104371400D03*
X136173400Y-103271400D03*
X136173400Y-102171400D03*
X136173400Y-101071400D03*
D15*
X138923400Y-97621400D03*
X140023400Y-97621400D03*
X141123400Y-97621400D03*
X142223400Y-97621400D03*
X143323400Y-97621400D03*
X144423400Y-97621400D03*
X145523400Y-97621400D03*
X146623400Y-97621400D03*
X147723400Y-97621400D03*
X148823400Y-97621400D03*
X149923400Y-97621400D03*
X151023400Y-97621400D03*
D14*
X153773400Y-101071400D03*
X153773400Y-102171400D03*
X153773400Y-103271400D03*
X153773400Y-104371400D03*
X153773400Y-105471400D03*
X153773400Y-106571400D03*
X153773400Y-107671400D03*
X153773400Y-108771400D03*
X153773400Y-109871400D03*
D15*
X151023400Y-113321400D03*
X149923400Y-113321400D03*
X148823400Y-113321400D03*
X147723400Y-113321400D03*
X146623400Y-113321400D03*
X145523400Y-113321400D03*
X144423400Y-113321400D03*
X143323400Y-113321400D03*
X142223400Y-113321400D03*
X141123400Y-113321400D03*
X140023400Y-113321400D03*
X138923400Y-113321400D03*
G36*
G01*
X112364000Y-83949250D02*
X112364000Y-83436750D01*
G75*
G02*
X112582750Y-83218000I218750J0D01*
G01*
X113020250Y-83218000D01*
G75*
G02*
X113239000Y-83436750I0J-218750D01*
G01*
X113239000Y-83949250D01*
G75*
G02*
X113020250Y-84168000I-218750J0D01*
G01*
X112582750Y-84168000D01*
G75*
G02*
X112364000Y-83949250I0J218750D01*
G01*
G37*
G36*
G01*
X110789000Y-83949250D02*
X110789000Y-83436750D01*
G75*
G02*
X111007750Y-83218000I218750J0D01*
G01*
X111445250Y-83218000D01*
G75*
G02*
X111664000Y-83436750I0J-218750D01*
G01*
X111664000Y-83949250D01*
G75*
G02*
X111445250Y-84168000I-218750J0D01*
G01*
X111007750Y-84168000D01*
G75*
G02*
X110789000Y-83949250I0J218750D01*
G01*
G37*
G36*
G01*
X102839000Y-74551250D02*
X102839000Y-74038750D01*
G75*
G02*
X103057750Y-73820000I218750J0D01*
G01*
X103495250Y-73820000D01*
G75*
G02*
X103714000Y-74038750I0J-218750D01*
G01*
X103714000Y-74551250D01*
G75*
G02*
X103495250Y-74770000I-218750J0D01*
G01*
X103057750Y-74770000D01*
G75*
G02*
X102839000Y-74551250I0J218750D01*
G01*
G37*
G36*
G01*
X101264000Y-74551250D02*
X101264000Y-74038750D01*
G75*
G02*
X101482750Y-73820000I218750J0D01*
G01*
X101920250Y-73820000D01*
G75*
G02*
X102139000Y-74038750I0J-218750D01*
G01*
X102139000Y-74551250D01*
G75*
G02*
X101920250Y-74770000I-218750J0D01*
G01*
X101482750Y-74770000D01*
G75*
G02*
X101264000Y-74551250I0J218750D01*
G01*
G37*
D16*
X122095000Y-101600000D03*
X128095000Y-101600000D03*
G36*
G01*
X141348750Y-83535000D02*
X141861250Y-83535000D01*
G75*
G02*
X142080000Y-83753750I0J-218750D01*
G01*
X142080000Y-84191250D01*
G75*
G02*
X141861250Y-84410000I-218750J0D01*
G01*
X141348750Y-84410000D01*
G75*
G02*
X141130000Y-84191250I0J218750D01*
G01*
X141130000Y-83753750D01*
G75*
G02*
X141348750Y-83535000I218750J0D01*
G01*
G37*
G36*
G01*
X141348750Y-81960000D02*
X141861250Y-81960000D01*
G75*
G02*
X142080000Y-82178750I0J-218750D01*
G01*
X142080000Y-82616250D01*
G75*
G02*
X141861250Y-82835000I-218750J0D01*
G01*
X141348750Y-82835000D01*
G75*
G02*
X141130000Y-82616250I0J218750D01*
G01*
X141130000Y-82178750D01*
G75*
G02*
X141348750Y-81960000I218750J0D01*
G01*
G37*
G36*
G01*
X118643400Y-104523400D02*
X119893400Y-104523400D01*
G75*
G02*
X120143400Y-104773400I0J-250000D01*
G01*
X120143400Y-105523400D01*
G75*
G02*
X119893400Y-105773400I-250000J0D01*
G01*
X118643400Y-105773400D01*
G75*
G02*
X118393400Y-105523400I0J250000D01*
G01*
X118393400Y-104773400D01*
G75*
G02*
X118643400Y-104523400I250000J0D01*
G01*
G37*
G36*
G01*
X118643400Y-101723400D02*
X119893400Y-101723400D01*
G75*
G02*
X120143400Y-101973400I0J-250000D01*
G01*
X120143400Y-102723400D01*
G75*
G02*
X119893400Y-102973400I-250000J0D01*
G01*
X118643400Y-102973400D01*
G75*
G02*
X118393400Y-102723400I0J250000D01*
G01*
X118393400Y-101973400D01*
G75*
G02*
X118643400Y-101723400I250000J0D01*
G01*
G37*
G36*
G01*
X111359200Y-112164150D02*
X111359200Y-112676650D01*
G75*
G02*
X111140450Y-112895400I-218750J0D01*
G01*
X110702950Y-112895400D01*
G75*
G02*
X110484200Y-112676650I0J218750D01*
G01*
X110484200Y-112164150D01*
G75*
G02*
X110702950Y-111945400I218750J0D01*
G01*
X111140450Y-111945400D01*
G75*
G02*
X111359200Y-112164150I0J-218750D01*
G01*
G37*
G36*
G01*
X112934200Y-112164150D02*
X112934200Y-112676650D01*
G75*
G02*
X112715450Y-112895400I-218750J0D01*
G01*
X112277950Y-112895400D01*
G75*
G02*
X112059200Y-112676650I0J218750D01*
G01*
X112059200Y-112164150D01*
G75*
G02*
X112277950Y-111945400I218750J0D01*
G01*
X112715450Y-111945400D01*
G75*
G02*
X112934200Y-112164150I0J-218750D01*
G01*
G37*
D17*
X158194000Y-100325200D03*
X158194000Y-99055200D03*
X158194000Y-97785200D03*
X158194000Y-96515200D03*
X158194000Y-95245200D03*
X158194000Y-93975200D03*
D18*
X169354000Y-104625200D03*
X169354000Y-90225200D03*
G36*
G01*
X126882050Y-54373800D02*
X125969550Y-54373800D01*
G75*
G02*
X125725800Y-54130050I0J243750D01*
G01*
X125725800Y-53642550D01*
G75*
G02*
X125969550Y-53398800I243750J0D01*
G01*
X126882050Y-53398800D01*
G75*
G02*
X127125800Y-53642550I0J-243750D01*
G01*
X127125800Y-54130050D01*
G75*
G02*
X126882050Y-54373800I-243750J0D01*
G01*
G37*
G36*
G01*
X126882050Y-56248800D02*
X125969550Y-56248800D01*
G75*
G02*
X125725800Y-56005050I0J243750D01*
G01*
X125725800Y-55517550D01*
G75*
G02*
X125969550Y-55273800I243750J0D01*
G01*
X126882050Y-55273800D01*
G75*
G02*
X127125800Y-55517550I0J-243750D01*
G01*
X127125800Y-56005050D01*
G75*
G02*
X126882050Y-56248800I-243750J0D01*
G01*
G37*
D19*
X137794000Y-72323200D03*
X134494000Y-72323200D03*
X134494000Y-70323200D03*
X137794000Y-70323200D03*
D20*
X164084000Y-107053200D03*
X163134000Y-107053200D03*
X165034000Y-107053200D03*
X165034000Y-109253200D03*
X164084000Y-109253200D03*
X163134000Y-109253200D03*
G36*
G01*
X115421400Y-111025800D02*
X115421400Y-111325800D01*
G75*
G02*
X115271400Y-111475800I-150000J0D01*
G01*
X113946400Y-111475800D01*
G75*
G02*
X113796400Y-111325800I0J150000D01*
G01*
X113796400Y-111025800D01*
G75*
G02*
X113946400Y-110875800I150000J0D01*
G01*
X115271400Y-110875800D01*
G75*
G02*
X115421400Y-111025800I0J-150000D01*
G01*
G37*
G36*
G01*
X115421400Y-109755800D02*
X115421400Y-110055800D01*
G75*
G02*
X115271400Y-110205800I-150000J0D01*
G01*
X113946400Y-110205800D01*
G75*
G02*
X113796400Y-110055800I0J150000D01*
G01*
X113796400Y-109755800D01*
G75*
G02*
X113946400Y-109605800I150000J0D01*
G01*
X115271400Y-109605800D01*
G75*
G02*
X115421400Y-109755800I0J-150000D01*
G01*
G37*
G36*
G01*
X115421400Y-108485800D02*
X115421400Y-108785800D01*
G75*
G02*
X115271400Y-108935800I-150000J0D01*
G01*
X113946400Y-108935800D01*
G75*
G02*
X113796400Y-108785800I0J150000D01*
G01*
X113796400Y-108485800D01*
G75*
G02*
X113946400Y-108335800I150000J0D01*
G01*
X115271400Y-108335800D01*
G75*
G02*
X115421400Y-108485800I0J-150000D01*
G01*
G37*
G36*
G01*
X115421400Y-107215800D02*
X115421400Y-107515800D01*
G75*
G02*
X115271400Y-107665800I-150000J0D01*
G01*
X113946400Y-107665800D01*
G75*
G02*
X113796400Y-107515800I0J150000D01*
G01*
X113796400Y-107215800D01*
G75*
G02*
X113946400Y-107065800I150000J0D01*
G01*
X115271400Y-107065800D01*
G75*
G02*
X115421400Y-107215800I0J-150000D01*
G01*
G37*
G36*
G01*
X120696400Y-107215800D02*
X120696400Y-107515800D01*
G75*
G02*
X120546400Y-107665800I-150000J0D01*
G01*
X119221400Y-107665800D01*
G75*
G02*
X119071400Y-107515800I0J150000D01*
G01*
X119071400Y-107215800D01*
G75*
G02*
X119221400Y-107065800I150000J0D01*
G01*
X120546400Y-107065800D01*
G75*
G02*
X120696400Y-107215800I0J-150000D01*
G01*
G37*
G36*
G01*
X120696400Y-108485800D02*
X120696400Y-108785800D01*
G75*
G02*
X120546400Y-108935800I-150000J0D01*
G01*
X119221400Y-108935800D01*
G75*
G02*
X119071400Y-108785800I0J150000D01*
G01*
X119071400Y-108485800D01*
G75*
G02*
X119221400Y-108335800I150000J0D01*
G01*
X120546400Y-108335800D01*
G75*
G02*
X120696400Y-108485800I0J-150000D01*
G01*
G37*
G36*
G01*
X120696400Y-109755800D02*
X120696400Y-110055800D01*
G75*
G02*
X120546400Y-110205800I-150000J0D01*
G01*
X119221400Y-110205800D01*
G75*
G02*
X119071400Y-110055800I0J150000D01*
G01*
X119071400Y-109755800D01*
G75*
G02*
X119221400Y-109605800I150000J0D01*
G01*
X120546400Y-109605800D01*
G75*
G02*
X120696400Y-109755800I0J-150000D01*
G01*
G37*
G36*
G01*
X120696400Y-111025800D02*
X120696400Y-111325800D01*
G75*
G02*
X120546400Y-111475800I-150000J0D01*
G01*
X119221400Y-111475800D01*
G75*
G02*
X119071400Y-111325800I0J150000D01*
G01*
X119071400Y-111025800D01*
G75*
G02*
X119221400Y-110875800I150000J0D01*
G01*
X120546400Y-110875800D01*
G75*
G02*
X120696400Y-111025800I0J-150000D01*
G01*
G37*
G36*
G01*
X117121400Y-108075799D02*
X117121400Y-108865801D01*
G75*
G02*
X116871401Y-109115800I-249999J0D01*
G01*
X116361399Y-109115800D01*
G75*
G02*
X116111400Y-108865801I0J249999D01*
G01*
X116111400Y-108075799D01*
G75*
G02*
X116361399Y-107825800I249999J0D01*
G01*
X116871401Y-107825800D01*
G75*
G02*
X117121400Y-108075799I0J-249999D01*
G01*
G37*
G36*
G01*
X117121400Y-109675799D02*
X117121400Y-110465801D01*
G75*
G02*
X116871401Y-110715800I-249999J0D01*
G01*
X116361399Y-110715800D01*
G75*
G02*
X116111400Y-110465801I0J249999D01*
G01*
X116111400Y-109675799D01*
G75*
G02*
X116361399Y-109425800I249999J0D01*
G01*
X116871401Y-109425800D01*
G75*
G02*
X117121400Y-109675799I0J-249999D01*
G01*
G37*
G36*
G01*
X118381400Y-108075799D02*
X118381400Y-108865801D01*
G75*
G02*
X118131401Y-109115800I-249999J0D01*
G01*
X117621399Y-109115800D01*
G75*
G02*
X117371400Y-108865801I0J249999D01*
G01*
X117371400Y-108075799D01*
G75*
G02*
X117621399Y-107825800I249999J0D01*
G01*
X118131401Y-107825800D01*
G75*
G02*
X118381400Y-108075799I0J-249999D01*
G01*
G37*
G36*
G01*
X118381400Y-109675799D02*
X118381400Y-110465801D01*
G75*
G02*
X118131401Y-110715800I-249999J0D01*
G01*
X117621399Y-110715800D01*
G75*
G02*
X117371400Y-110465801I0J249999D01*
G01*
X117371400Y-109675799D01*
G75*
G02*
X117621399Y-109425800I249999J0D01*
G01*
X118131401Y-109425800D01*
G75*
G02*
X118381400Y-109675799I0J-249999D01*
G01*
G37*
G36*
G01*
X150499000Y-63444600D02*
X150499000Y-63294600D01*
G75*
G02*
X150574000Y-63219600I75000J0D01*
G01*
X151874000Y-63219600D01*
G75*
G02*
X151949000Y-63294600I0J-75000D01*
G01*
X151949000Y-63444600D01*
G75*
G02*
X151874000Y-63519600I-75000J0D01*
G01*
X150574000Y-63519600D01*
G75*
G02*
X150499000Y-63444600I0J75000D01*
G01*
G37*
G36*
G01*
X150499000Y-63944600D02*
X150499000Y-63794600D01*
G75*
G02*
X150574000Y-63719600I75000J0D01*
G01*
X151874000Y-63719600D01*
G75*
G02*
X151949000Y-63794600I0J-75000D01*
G01*
X151949000Y-63944600D01*
G75*
G02*
X151874000Y-64019600I-75000J0D01*
G01*
X150574000Y-64019600D01*
G75*
G02*
X150499000Y-63944600I0J75000D01*
G01*
G37*
G36*
G01*
X150499000Y-64444600D02*
X150499000Y-64294600D01*
G75*
G02*
X150574000Y-64219600I75000J0D01*
G01*
X151874000Y-64219600D01*
G75*
G02*
X151949000Y-64294600I0J-75000D01*
G01*
X151949000Y-64444600D01*
G75*
G02*
X151874000Y-64519600I-75000J0D01*
G01*
X150574000Y-64519600D01*
G75*
G02*
X150499000Y-64444600I0J75000D01*
G01*
G37*
G36*
G01*
X150499000Y-64944600D02*
X150499000Y-64794600D01*
G75*
G02*
X150574000Y-64719600I75000J0D01*
G01*
X151874000Y-64719600D01*
G75*
G02*
X151949000Y-64794600I0J-75000D01*
G01*
X151949000Y-64944600D01*
G75*
G02*
X151874000Y-65019600I-75000J0D01*
G01*
X150574000Y-65019600D01*
G75*
G02*
X150499000Y-64944600I0J75000D01*
G01*
G37*
G36*
G01*
X150499000Y-65444600D02*
X150499000Y-65294600D01*
G75*
G02*
X150574000Y-65219600I75000J0D01*
G01*
X151874000Y-65219600D01*
G75*
G02*
X151949000Y-65294600I0J-75000D01*
G01*
X151949000Y-65444600D01*
G75*
G02*
X151874000Y-65519600I-75000J0D01*
G01*
X150574000Y-65519600D01*
G75*
G02*
X150499000Y-65444600I0J75000D01*
G01*
G37*
G36*
G01*
X146099000Y-65444600D02*
X146099000Y-65294600D01*
G75*
G02*
X146174000Y-65219600I75000J0D01*
G01*
X147474000Y-65219600D01*
G75*
G02*
X147549000Y-65294600I0J-75000D01*
G01*
X147549000Y-65444600D01*
G75*
G02*
X147474000Y-65519600I-75000J0D01*
G01*
X146174000Y-65519600D01*
G75*
G02*
X146099000Y-65444600I0J75000D01*
G01*
G37*
G36*
G01*
X146099000Y-64944600D02*
X146099000Y-64794600D01*
G75*
G02*
X146174000Y-64719600I75000J0D01*
G01*
X147474000Y-64719600D01*
G75*
G02*
X147549000Y-64794600I0J-75000D01*
G01*
X147549000Y-64944600D01*
G75*
G02*
X147474000Y-65019600I-75000J0D01*
G01*
X146174000Y-65019600D01*
G75*
G02*
X146099000Y-64944600I0J75000D01*
G01*
G37*
G36*
G01*
X146099000Y-64444600D02*
X146099000Y-64294600D01*
G75*
G02*
X146174000Y-64219600I75000J0D01*
G01*
X147474000Y-64219600D01*
G75*
G02*
X147549000Y-64294600I0J-75000D01*
G01*
X147549000Y-64444600D01*
G75*
G02*
X147474000Y-64519600I-75000J0D01*
G01*
X146174000Y-64519600D01*
G75*
G02*
X146099000Y-64444600I0J75000D01*
G01*
G37*
G36*
G01*
X146099000Y-63944600D02*
X146099000Y-63794600D01*
G75*
G02*
X146174000Y-63719600I75000J0D01*
G01*
X147474000Y-63719600D01*
G75*
G02*
X147549000Y-63794600I0J-75000D01*
G01*
X147549000Y-63944600D01*
G75*
G02*
X147474000Y-64019600I-75000J0D01*
G01*
X146174000Y-64019600D01*
G75*
G02*
X146099000Y-63944600I0J75000D01*
G01*
G37*
G36*
G01*
X146099000Y-63444600D02*
X146099000Y-63294600D01*
G75*
G02*
X146174000Y-63219600I75000J0D01*
G01*
X147474000Y-63219600D01*
G75*
G02*
X147549000Y-63294600I0J-75000D01*
G01*
X147549000Y-63444600D01*
G75*
G02*
X147474000Y-63519600I-75000J0D01*
G01*
X146174000Y-63519600D01*
G75*
G02*
X146099000Y-63444600I0J75000D01*
G01*
G37*
G36*
G01*
X129444900Y-58250600D02*
X129444900Y-58400600D01*
G75*
G02*
X129369900Y-58475600I-75000J0D01*
G01*
X128069900Y-58475600D01*
G75*
G02*
X127994900Y-58400600I0J75000D01*
G01*
X127994900Y-58250600D01*
G75*
G02*
X128069900Y-58175600I75000J0D01*
G01*
X129369900Y-58175600D01*
G75*
G02*
X129444900Y-58250600I0J-75000D01*
G01*
G37*
G36*
G01*
X129444900Y-57750600D02*
X129444900Y-57900600D01*
G75*
G02*
X129369900Y-57975600I-75000J0D01*
G01*
X128069900Y-57975600D01*
G75*
G02*
X127994900Y-57900600I0J75000D01*
G01*
X127994900Y-57750600D01*
G75*
G02*
X128069900Y-57675600I75000J0D01*
G01*
X129369900Y-57675600D01*
G75*
G02*
X129444900Y-57750600I0J-75000D01*
G01*
G37*
G36*
G01*
X129444900Y-57250600D02*
X129444900Y-57400600D01*
G75*
G02*
X129369900Y-57475600I-75000J0D01*
G01*
X128069900Y-57475600D01*
G75*
G02*
X127994900Y-57400600I0J75000D01*
G01*
X127994900Y-57250600D01*
G75*
G02*
X128069900Y-57175600I75000J0D01*
G01*
X129369900Y-57175600D01*
G75*
G02*
X129444900Y-57250600I0J-75000D01*
G01*
G37*
G36*
G01*
X129444900Y-56750600D02*
X129444900Y-56900600D01*
G75*
G02*
X129369900Y-56975600I-75000J0D01*
G01*
X128069900Y-56975600D01*
G75*
G02*
X127994900Y-56900600I0J75000D01*
G01*
X127994900Y-56750600D01*
G75*
G02*
X128069900Y-56675600I75000J0D01*
G01*
X129369900Y-56675600D01*
G75*
G02*
X129444900Y-56750600I0J-75000D01*
G01*
G37*
G36*
G01*
X129444900Y-56250600D02*
X129444900Y-56400600D01*
G75*
G02*
X129369900Y-56475600I-75000J0D01*
G01*
X128069900Y-56475600D01*
G75*
G02*
X127994900Y-56400600I0J75000D01*
G01*
X127994900Y-56250600D01*
G75*
G02*
X128069900Y-56175600I75000J0D01*
G01*
X129369900Y-56175600D01*
G75*
G02*
X129444900Y-56250600I0J-75000D01*
G01*
G37*
G36*
G01*
X133744900Y-56250600D02*
X133744900Y-56400600D01*
G75*
G02*
X133669900Y-56475600I-75000J0D01*
G01*
X132369900Y-56475600D01*
G75*
G02*
X132294900Y-56400600I0J75000D01*
G01*
X132294900Y-56250600D01*
G75*
G02*
X132369900Y-56175600I75000J0D01*
G01*
X133669900Y-56175600D01*
G75*
G02*
X133744900Y-56250600I0J-75000D01*
G01*
G37*
G36*
G01*
X133744900Y-56750600D02*
X133744900Y-56900600D01*
G75*
G02*
X133669900Y-56975600I-75000J0D01*
G01*
X132369900Y-56975600D01*
G75*
G02*
X132294900Y-56900600I0J75000D01*
G01*
X132294900Y-56750600D01*
G75*
G02*
X132369900Y-56675600I75000J0D01*
G01*
X133669900Y-56675600D01*
G75*
G02*
X133744900Y-56750600I0J-75000D01*
G01*
G37*
G36*
G01*
X133744900Y-57250600D02*
X133744900Y-57400600D01*
G75*
G02*
X133669900Y-57475600I-75000J0D01*
G01*
X132369900Y-57475600D01*
G75*
G02*
X132294900Y-57400600I0J75000D01*
G01*
X132294900Y-57250600D01*
G75*
G02*
X132369900Y-57175600I75000J0D01*
G01*
X133669900Y-57175600D01*
G75*
G02*
X133744900Y-57250600I0J-75000D01*
G01*
G37*
G36*
G01*
X133744900Y-57750600D02*
X133744900Y-57900600D01*
G75*
G02*
X133669900Y-57975600I-75000J0D01*
G01*
X132369900Y-57975600D01*
G75*
G02*
X132294900Y-57900600I0J75000D01*
G01*
X132294900Y-57750600D01*
G75*
G02*
X132369900Y-57675600I75000J0D01*
G01*
X133669900Y-57675600D01*
G75*
G02*
X133744900Y-57750600I0J-75000D01*
G01*
G37*
G36*
G01*
X133744900Y-58250600D02*
X133744900Y-58400600D01*
G75*
G02*
X133669900Y-58475600I-75000J0D01*
G01*
X132369900Y-58475600D01*
G75*
G02*
X132294900Y-58400600I0J75000D01*
G01*
X132294900Y-58250600D01*
G75*
G02*
X132369900Y-58175600I75000J0D01*
G01*
X133669900Y-58175600D01*
G75*
G02*
X133744900Y-58250600I0J-75000D01*
G01*
G37*
G36*
G01*
X130789900Y-56645600D02*
X130789900Y-57065600D01*
G75*
G02*
X130619900Y-57235600I-170000J0D01*
G01*
X130279900Y-57235600D01*
G75*
G02*
X130109900Y-57065600I0J170000D01*
G01*
X130109900Y-56645600D01*
G75*
G02*
X130279900Y-56475600I170000J0D01*
G01*
X130619900Y-56475600D01*
G75*
G02*
X130789900Y-56645600I0J-170000D01*
G01*
G37*
G36*
G01*
X130789900Y-57585600D02*
X130789900Y-58005600D01*
G75*
G02*
X130619900Y-58175600I-170000J0D01*
G01*
X130279900Y-58175600D01*
G75*
G02*
X130109900Y-58005600I0J170000D01*
G01*
X130109900Y-57585600D01*
G75*
G02*
X130279900Y-57415600I170000J0D01*
G01*
X130619900Y-57415600D01*
G75*
G02*
X130789900Y-57585600I0J-170000D01*
G01*
G37*
G36*
G01*
X131629900Y-56645600D02*
X131629900Y-57065600D01*
G75*
G02*
X131459900Y-57235600I-170000J0D01*
G01*
X131119900Y-57235600D01*
G75*
G02*
X130949900Y-57065600I0J170000D01*
G01*
X130949900Y-56645600D01*
G75*
G02*
X131119900Y-56475600I170000J0D01*
G01*
X131459900Y-56475600D01*
G75*
G02*
X131629900Y-56645600I0J-170000D01*
G01*
G37*
G36*
G01*
X131629900Y-57585600D02*
X131629900Y-58005600D01*
G75*
G02*
X131459900Y-58175600I-170000J0D01*
G01*
X131119900Y-58175600D01*
G75*
G02*
X130949900Y-58005600I0J170000D01*
G01*
X130949900Y-57585600D01*
G75*
G02*
X131119900Y-57415600I170000J0D01*
G01*
X131459900Y-57415600D01*
G75*
G02*
X131629900Y-57585600I0J-170000D01*
G01*
G37*
D21*
X114929000Y-55560400D03*
X112929000Y-56510400D03*
X112929000Y-54610400D03*
X114929000Y-59687900D03*
X112929000Y-60637900D03*
X112929000Y-58737900D03*
D22*
X153944800Y-66268600D03*
X153944800Y-67218600D03*
X153944800Y-65318600D03*
X156544800Y-65318600D03*
X156544800Y-66268600D03*
X156544800Y-67218600D03*
D20*
X116128800Y-65041600D03*
X115178800Y-65041600D03*
X117078800Y-65041600D03*
X117078800Y-67241600D03*
X116128800Y-67241600D03*
X115178800Y-67241600D03*
G36*
G01*
X111638600Y-81023750D02*
X111638600Y-81536250D01*
G75*
G02*
X111419850Y-81755000I-218750J0D01*
G01*
X110982350Y-81755000D01*
G75*
G02*
X110763600Y-81536250I0J218750D01*
G01*
X110763600Y-81023750D01*
G75*
G02*
X110982350Y-80805000I218750J0D01*
G01*
X111419850Y-80805000D01*
G75*
G02*
X111638600Y-81023750I0J-218750D01*
G01*
G37*
G36*
G01*
X113213600Y-81023750D02*
X113213600Y-81536250D01*
G75*
G02*
X112994850Y-81755000I-218750J0D01*
G01*
X112557350Y-81755000D01*
G75*
G02*
X112338600Y-81536250I0J218750D01*
G01*
X112338600Y-81023750D01*
G75*
G02*
X112557350Y-80805000I218750J0D01*
G01*
X112994850Y-80805000D01*
G75*
G02*
X113213600Y-81023750I0J-218750D01*
G01*
G37*
G36*
G01*
X130172750Y-109951000D02*
X130685250Y-109951000D01*
G75*
G02*
X130904000Y-110169750I0J-218750D01*
G01*
X130904000Y-110607250D01*
G75*
G02*
X130685250Y-110826000I-218750J0D01*
G01*
X130172750Y-110826000D01*
G75*
G02*
X129954000Y-110607250I0J218750D01*
G01*
X129954000Y-110169750D01*
G75*
G02*
X130172750Y-109951000I218750J0D01*
G01*
G37*
G36*
G01*
X130172750Y-108376000D02*
X130685250Y-108376000D01*
G75*
G02*
X130904000Y-108594750I0J-218750D01*
G01*
X130904000Y-109032250D01*
G75*
G02*
X130685250Y-109251000I-218750J0D01*
G01*
X130172750Y-109251000D01*
G75*
G02*
X129954000Y-109032250I0J218750D01*
G01*
X129954000Y-108594750D01*
G75*
G02*
X130172750Y-108376000I218750J0D01*
G01*
G37*
G36*
G01*
X133733250Y-109251000D02*
X133220750Y-109251000D01*
G75*
G02*
X133002000Y-109032250I0J218750D01*
G01*
X133002000Y-108594750D01*
G75*
G02*
X133220750Y-108376000I218750J0D01*
G01*
X133733250Y-108376000D01*
G75*
G02*
X133952000Y-108594750I0J-218750D01*
G01*
X133952000Y-109032250D01*
G75*
G02*
X133733250Y-109251000I-218750J0D01*
G01*
G37*
G36*
G01*
X133733250Y-110826000D02*
X133220750Y-110826000D01*
G75*
G02*
X133002000Y-110607250I0J218750D01*
G01*
X133002000Y-110169750D01*
G75*
G02*
X133220750Y-109951000I218750J0D01*
G01*
X133733250Y-109951000D01*
G75*
G02*
X133952000Y-110169750I0J-218750D01*
G01*
X133952000Y-110607250D01*
G75*
G02*
X133733250Y-110826000I-218750J0D01*
G01*
G37*
G36*
G01*
X130659850Y-112476800D02*
X130147350Y-112476800D01*
G75*
G02*
X129928600Y-112258050I0J218750D01*
G01*
X129928600Y-111820550D01*
G75*
G02*
X130147350Y-111601800I218750J0D01*
G01*
X130659850Y-111601800D01*
G75*
G02*
X130878600Y-111820550I0J-218750D01*
G01*
X130878600Y-112258050D01*
G75*
G02*
X130659850Y-112476800I-218750J0D01*
G01*
G37*
G36*
G01*
X130659850Y-114051800D02*
X130147350Y-114051800D01*
G75*
G02*
X129928600Y-113833050I0J218750D01*
G01*
X129928600Y-113395550D01*
G75*
G02*
X130147350Y-113176800I218750J0D01*
G01*
X130659850Y-113176800D01*
G75*
G02*
X130878600Y-113395550I0J-218750D01*
G01*
X130878600Y-113833050D01*
G75*
G02*
X130659850Y-114051800I-218750J0D01*
G01*
G37*
G36*
G01*
X133246150Y-113227600D02*
X133758650Y-113227600D01*
G75*
G02*
X133977400Y-113446350I0J-218750D01*
G01*
X133977400Y-113883850D01*
G75*
G02*
X133758650Y-114102600I-218750J0D01*
G01*
X133246150Y-114102600D01*
G75*
G02*
X133027400Y-113883850I0J218750D01*
G01*
X133027400Y-113446350D01*
G75*
G02*
X133246150Y-113227600I218750J0D01*
G01*
G37*
G36*
G01*
X133246150Y-111652600D02*
X133758650Y-111652600D01*
G75*
G02*
X133977400Y-111871350I0J-218750D01*
G01*
X133977400Y-112308850D01*
G75*
G02*
X133758650Y-112527600I-218750J0D01*
G01*
X133246150Y-112527600D01*
G75*
G02*
X133027400Y-112308850I0J218750D01*
G01*
X133027400Y-111871350D01*
G75*
G02*
X133246150Y-111652600I218750J0D01*
G01*
G37*
G36*
G01*
X158400000Y-111452950D02*
X158400000Y-111965450D01*
G75*
G02*
X158181250Y-112184200I-218750J0D01*
G01*
X157743750Y-112184200D01*
G75*
G02*
X157525000Y-111965450I0J218750D01*
G01*
X157525000Y-111452950D01*
G75*
G02*
X157743750Y-111234200I218750J0D01*
G01*
X158181250Y-111234200D01*
G75*
G02*
X158400000Y-111452950I0J-218750D01*
G01*
G37*
G36*
G01*
X159975000Y-111452950D02*
X159975000Y-111965450D01*
G75*
G02*
X159756250Y-112184200I-218750J0D01*
G01*
X159318750Y-112184200D01*
G75*
G02*
X159100000Y-111965450I0J218750D01*
G01*
X159100000Y-111452950D01*
G75*
G02*
X159318750Y-111234200I218750J0D01*
G01*
X159756250Y-111234200D01*
G75*
G02*
X159975000Y-111452950I0J-218750D01*
G01*
G37*
G36*
G01*
X158400000Y-109672350D02*
X158400000Y-110184850D01*
G75*
G02*
X158181250Y-110403600I-218750J0D01*
G01*
X157743750Y-110403600D01*
G75*
G02*
X157525000Y-110184850I0J218750D01*
G01*
X157525000Y-109672350D01*
G75*
G02*
X157743750Y-109453600I218750J0D01*
G01*
X158181250Y-109453600D01*
G75*
G02*
X158400000Y-109672350I0J-218750D01*
G01*
G37*
G36*
G01*
X159975000Y-109672350D02*
X159975000Y-110184850D01*
G75*
G02*
X159756250Y-110403600I-218750J0D01*
G01*
X159318750Y-110403600D01*
G75*
G02*
X159100000Y-110184850I0J218750D01*
G01*
X159100000Y-109672350D01*
G75*
G02*
X159318750Y-109453600I218750J0D01*
G01*
X159756250Y-109453600D01*
G75*
G02*
X159975000Y-109672350I0J-218750D01*
G01*
G37*
G36*
G01*
X158400000Y-107919750D02*
X158400000Y-108432250D01*
G75*
G02*
X158181250Y-108651000I-218750J0D01*
G01*
X157743750Y-108651000D01*
G75*
G02*
X157525000Y-108432250I0J218750D01*
G01*
X157525000Y-107919750D01*
G75*
G02*
X157743750Y-107701000I218750J0D01*
G01*
X158181250Y-107701000D01*
G75*
G02*
X158400000Y-107919750I0J-218750D01*
G01*
G37*
G36*
G01*
X159975000Y-107919750D02*
X159975000Y-108432250D01*
G75*
G02*
X159756250Y-108651000I-218750J0D01*
G01*
X159318750Y-108651000D01*
G75*
G02*
X159100000Y-108432250I0J218750D01*
G01*
X159100000Y-107919750D01*
G75*
G02*
X159318750Y-107701000I218750J0D01*
G01*
X159756250Y-107701000D01*
G75*
G02*
X159975000Y-107919750I0J-218750D01*
G01*
G37*
G36*
G01*
X161452850Y-81464900D02*
X161965350Y-81464900D01*
G75*
G02*
X162184100Y-81683650I0J-218750D01*
G01*
X162184100Y-82121150D01*
G75*
G02*
X161965350Y-82339900I-218750J0D01*
G01*
X161452850Y-82339900D01*
G75*
G02*
X161234100Y-82121150I0J218750D01*
G01*
X161234100Y-81683650D01*
G75*
G02*
X161452850Y-81464900I218750J0D01*
G01*
G37*
G36*
G01*
X161452850Y-79889900D02*
X161965350Y-79889900D01*
G75*
G02*
X162184100Y-80108650I0J-218750D01*
G01*
X162184100Y-80546150D01*
G75*
G02*
X161965350Y-80764900I-218750J0D01*
G01*
X161452850Y-80764900D01*
G75*
G02*
X161234100Y-80546150I0J218750D01*
G01*
X161234100Y-80108650D01*
G75*
G02*
X161452850Y-79889900I218750J0D01*
G01*
G37*
G36*
G01*
X153545250Y-82327000D02*
X153032750Y-82327000D01*
G75*
G02*
X152814000Y-82108250I0J218750D01*
G01*
X152814000Y-81670750D01*
G75*
G02*
X153032750Y-81452000I218750J0D01*
G01*
X153545250Y-81452000D01*
G75*
G02*
X153764000Y-81670750I0J-218750D01*
G01*
X153764000Y-82108250D01*
G75*
G02*
X153545250Y-82327000I-218750J0D01*
G01*
G37*
G36*
G01*
X153545250Y-83902000D02*
X153032750Y-83902000D01*
G75*
G02*
X152814000Y-83683250I0J218750D01*
G01*
X152814000Y-83245750D01*
G75*
G02*
X153032750Y-83027000I218750J0D01*
G01*
X153545250Y-83027000D01*
G75*
G02*
X153764000Y-83245750I0J-218750D01*
G01*
X153764000Y-83683250D01*
G75*
G02*
X153545250Y-83902000I-218750J0D01*
G01*
G37*
G36*
G01*
X115318250Y-104247200D02*
X114805750Y-104247200D01*
G75*
G02*
X114587000Y-104028450I0J218750D01*
G01*
X114587000Y-103590950D01*
G75*
G02*
X114805750Y-103372200I218750J0D01*
G01*
X115318250Y-103372200D01*
G75*
G02*
X115537000Y-103590950I0J-218750D01*
G01*
X115537000Y-104028450D01*
G75*
G02*
X115318250Y-104247200I-218750J0D01*
G01*
G37*
G36*
G01*
X115318250Y-105822200D02*
X114805750Y-105822200D01*
G75*
G02*
X114587000Y-105603450I0J218750D01*
G01*
X114587000Y-105165950D01*
G75*
G02*
X114805750Y-104947200I218750J0D01*
G01*
X115318250Y-104947200D01*
G75*
G02*
X115537000Y-105165950I0J-218750D01*
G01*
X115537000Y-105603450D01*
G75*
G02*
X115318250Y-105822200I-218750J0D01*
G01*
G37*
G36*
G01*
X113027750Y-104947200D02*
X113540250Y-104947200D01*
G75*
G02*
X113759000Y-105165950I0J-218750D01*
G01*
X113759000Y-105603450D01*
G75*
G02*
X113540250Y-105822200I-218750J0D01*
G01*
X113027750Y-105822200D01*
G75*
G02*
X112809000Y-105603450I0J218750D01*
G01*
X112809000Y-105165950D01*
G75*
G02*
X113027750Y-104947200I218750J0D01*
G01*
G37*
G36*
G01*
X113027750Y-103372200D02*
X113540250Y-103372200D01*
G75*
G02*
X113759000Y-103590950I0J-218750D01*
G01*
X113759000Y-104028450D01*
G75*
G02*
X113540250Y-104247200I-218750J0D01*
G01*
X113027750Y-104247200D01*
G75*
G02*
X112809000Y-104028450I0J218750D01*
G01*
X112809000Y-103590950D01*
G75*
G02*
X113027750Y-103372200I218750J0D01*
G01*
G37*
G36*
G01*
X111638600Y-76451750D02*
X111638600Y-76964250D01*
G75*
G02*
X111419850Y-77183000I-218750J0D01*
G01*
X110982350Y-77183000D01*
G75*
G02*
X110763600Y-76964250I0J218750D01*
G01*
X110763600Y-76451750D01*
G75*
G02*
X110982350Y-76233000I218750J0D01*
G01*
X111419850Y-76233000D01*
G75*
G02*
X111638600Y-76451750I0J-218750D01*
G01*
G37*
G36*
G01*
X113213600Y-76451750D02*
X113213600Y-76964250D01*
G75*
G02*
X112994850Y-77183000I-218750J0D01*
G01*
X112557350Y-77183000D01*
G75*
G02*
X112338600Y-76964250I0J218750D01*
G01*
X112338600Y-76451750D01*
G75*
G02*
X112557350Y-76233000I218750J0D01*
G01*
X112994850Y-76233000D01*
G75*
G02*
X113213600Y-76451750I0J-218750D01*
G01*
G37*
G36*
G01*
X160305000Y-77340750D02*
X160305000Y-77853250D01*
G75*
G02*
X160086250Y-78072000I-218750J0D01*
G01*
X159648750Y-78072000D01*
G75*
G02*
X159430000Y-77853250I0J218750D01*
G01*
X159430000Y-77340750D01*
G75*
G02*
X159648750Y-77122000I218750J0D01*
G01*
X160086250Y-77122000D01*
G75*
G02*
X160305000Y-77340750I0J-218750D01*
G01*
G37*
G36*
G01*
X161880000Y-77340750D02*
X161880000Y-77853250D01*
G75*
G02*
X161661250Y-78072000I-218750J0D01*
G01*
X161223750Y-78072000D01*
G75*
G02*
X161005000Y-77853250I0J218750D01*
G01*
X161005000Y-77340750D01*
G75*
G02*
X161223750Y-77122000I218750J0D01*
G01*
X161661250Y-77122000D01*
G75*
G02*
X161880000Y-77340750I0J-218750D01*
G01*
G37*
G36*
G01*
X111249750Y-104947200D02*
X111762250Y-104947200D01*
G75*
G02*
X111981000Y-105165950I0J-218750D01*
G01*
X111981000Y-105603450D01*
G75*
G02*
X111762250Y-105822200I-218750J0D01*
G01*
X111249750Y-105822200D01*
G75*
G02*
X111031000Y-105603450I0J218750D01*
G01*
X111031000Y-105165950D01*
G75*
G02*
X111249750Y-104947200I218750J0D01*
G01*
G37*
G36*
G01*
X111249750Y-103372200D02*
X111762250Y-103372200D01*
G75*
G02*
X111981000Y-103590950I0J-218750D01*
G01*
X111981000Y-104028450D01*
G75*
G02*
X111762250Y-104247200I-218750J0D01*
G01*
X111249750Y-104247200D01*
G75*
G02*
X111031000Y-104028450I0J218750D01*
G01*
X111031000Y-103590950D01*
G75*
G02*
X111249750Y-103372200I218750J0D01*
G01*
G37*
G36*
G01*
X111638600Y-78737750D02*
X111638600Y-79250250D01*
G75*
G02*
X111419850Y-79469000I-218750J0D01*
G01*
X110982350Y-79469000D01*
G75*
G02*
X110763600Y-79250250I0J218750D01*
G01*
X110763600Y-78737750D01*
G75*
G02*
X110982350Y-78519000I218750J0D01*
G01*
X111419850Y-78519000D01*
G75*
G02*
X111638600Y-78737750I0J-218750D01*
G01*
G37*
G36*
G01*
X113213600Y-78737750D02*
X113213600Y-79250250D01*
G75*
G02*
X112994850Y-79469000I-218750J0D01*
G01*
X112557350Y-79469000D01*
G75*
G02*
X112338600Y-79250250I0J218750D01*
G01*
X112338600Y-78737750D01*
G75*
G02*
X112557350Y-78519000I218750J0D01*
G01*
X112994850Y-78519000D01*
G75*
G02*
X113213600Y-78737750I0J-218750D01*
G01*
G37*
G36*
G01*
X111359200Y-110436950D02*
X111359200Y-110949450D01*
G75*
G02*
X111140450Y-111168200I-218750J0D01*
G01*
X110702950Y-111168200D01*
G75*
G02*
X110484200Y-110949450I0J218750D01*
G01*
X110484200Y-110436950D01*
G75*
G02*
X110702950Y-110218200I218750J0D01*
G01*
X111140450Y-110218200D01*
G75*
G02*
X111359200Y-110436950I0J-218750D01*
G01*
G37*
G36*
G01*
X112934200Y-110436950D02*
X112934200Y-110949450D01*
G75*
G02*
X112715450Y-111168200I-218750J0D01*
G01*
X112277950Y-111168200D01*
G75*
G02*
X112059200Y-110949450I0J218750D01*
G01*
X112059200Y-110436950D01*
G75*
G02*
X112277950Y-110218200I218750J0D01*
G01*
X112715450Y-110218200D01*
G75*
G02*
X112934200Y-110436950I0J-218750D01*
G01*
G37*
G36*
G01*
X104497850Y-104526600D02*
X103985350Y-104526600D01*
G75*
G02*
X103766600Y-104307850I0J218750D01*
G01*
X103766600Y-103870350D01*
G75*
G02*
X103985350Y-103651600I218750J0D01*
G01*
X104497850Y-103651600D01*
G75*
G02*
X104716600Y-103870350I0J-218750D01*
G01*
X104716600Y-104307850D01*
G75*
G02*
X104497850Y-104526600I-218750J0D01*
G01*
G37*
G36*
G01*
X104497850Y-106101600D02*
X103985350Y-106101600D01*
G75*
G02*
X103766600Y-105882850I0J218750D01*
G01*
X103766600Y-105445350D01*
G75*
G02*
X103985350Y-105226600I218750J0D01*
G01*
X104497850Y-105226600D01*
G75*
G02*
X104716600Y-105445350I0J-218750D01*
G01*
X104716600Y-105882850D01*
G75*
G02*
X104497850Y-106101600I-218750J0D01*
G01*
G37*
G36*
G01*
X124543950Y-58552000D02*
X125056450Y-58552000D01*
G75*
G02*
X125275200Y-58770750I0J-218750D01*
G01*
X125275200Y-59208250D01*
G75*
G02*
X125056450Y-59427000I-218750J0D01*
G01*
X124543950Y-59427000D01*
G75*
G02*
X124325200Y-59208250I0J218750D01*
G01*
X124325200Y-58770750D01*
G75*
G02*
X124543950Y-58552000I218750J0D01*
G01*
G37*
G36*
G01*
X124543950Y-56977000D02*
X125056450Y-56977000D01*
G75*
G02*
X125275200Y-57195750I0J-218750D01*
G01*
X125275200Y-57633250D01*
G75*
G02*
X125056450Y-57852000I-218750J0D01*
G01*
X124543950Y-57852000D01*
G75*
G02*
X124325200Y-57633250I0J218750D01*
G01*
X124325200Y-57195750D01*
G75*
G02*
X124543950Y-56977000I218750J0D01*
G01*
G37*
G36*
G01*
X130647800Y-54313550D02*
X130647800Y-54826050D01*
G75*
G02*
X130429050Y-55044800I-218750J0D01*
G01*
X129991550Y-55044800D01*
G75*
G02*
X129772800Y-54826050I0J218750D01*
G01*
X129772800Y-54313550D01*
G75*
G02*
X129991550Y-54094800I218750J0D01*
G01*
X130429050Y-54094800D01*
G75*
G02*
X130647800Y-54313550I0J-218750D01*
G01*
G37*
G36*
G01*
X132222800Y-54313550D02*
X132222800Y-54826050D01*
G75*
G02*
X132004050Y-55044800I-218750J0D01*
G01*
X131566550Y-55044800D01*
G75*
G02*
X131347800Y-54826050I0J218750D01*
G01*
X131347800Y-54313550D01*
G75*
G02*
X131566550Y-54094800I218750J0D01*
G01*
X132004050Y-54094800D01*
G75*
G02*
X132222800Y-54313550I0J-218750D01*
G01*
G37*
G36*
G01*
X122664350Y-57002600D02*
X123176850Y-57002600D01*
G75*
G02*
X123395600Y-57221350I0J-218750D01*
G01*
X123395600Y-57658850D01*
G75*
G02*
X123176850Y-57877600I-218750J0D01*
G01*
X122664350Y-57877600D01*
G75*
G02*
X122445600Y-57658850I0J218750D01*
G01*
X122445600Y-57221350D01*
G75*
G02*
X122664350Y-57002600I218750J0D01*
G01*
G37*
G36*
G01*
X122664350Y-55427600D02*
X123176850Y-55427600D01*
G75*
G02*
X123395600Y-55646350I0J-218750D01*
G01*
X123395600Y-56083850D01*
G75*
G02*
X123176850Y-56302600I-218750J0D01*
G01*
X122664350Y-56302600D01*
G75*
G02*
X122445600Y-56083850I0J218750D01*
G01*
X122445600Y-55646350D01*
G75*
G02*
X122664350Y-55427600I218750J0D01*
G01*
G37*
G36*
G01*
X132077750Y-71216000D02*
X132590250Y-71216000D01*
G75*
G02*
X132809000Y-71434750I0J-218750D01*
G01*
X132809000Y-71872250D01*
G75*
G02*
X132590250Y-72091000I-218750J0D01*
G01*
X132077750Y-72091000D01*
G75*
G02*
X131859000Y-71872250I0J218750D01*
G01*
X131859000Y-71434750D01*
G75*
G02*
X132077750Y-71216000I218750J0D01*
G01*
G37*
G36*
G01*
X132077750Y-69641000D02*
X132590250Y-69641000D01*
G75*
G02*
X132809000Y-69859750I0J-218750D01*
G01*
X132809000Y-70297250D01*
G75*
G02*
X132590250Y-70516000I-218750J0D01*
G01*
X132077750Y-70516000D01*
G75*
G02*
X131859000Y-70297250I0J218750D01*
G01*
X131859000Y-69859750D01*
G75*
G02*
X132077750Y-69641000I218750J0D01*
G01*
G37*
G36*
G01*
X151139000Y-60524600D02*
X151139000Y-61774600D01*
G75*
G02*
X150889000Y-62024600I-250000J0D01*
G01*
X150139000Y-62024600D01*
G75*
G02*
X149889000Y-61774600I0J250000D01*
G01*
X149889000Y-60524600D01*
G75*
G02*
X150139000Y-60274600I250000J0D01*
G01*
X150889000Y-60274600D01*
G75*
G02*
X151139000Y-60524600I0J-250000D01*
G01*
G37*
G36*
G01*
X148339000Y-60524600D02*
X148339000Y-61774600D01*
G75*
G02*
X148089000Y-62024600I-250000J0D01*
G01*
X147339000Y-62024600D01*
G75*
G02*
X147089000Y-61774600I0J250000D01*
G01*
X147089000Y-60524600D01*
G75*
G02*
X147339000Y-60274600I250000J0D01*
G01*
X148089000Y-60274600D01*
G75*
G02*
X148339000Y-60524600I0J-250000D01*
G01*
G37*
G36*
G01*
X129128000Y-94617250D02*
X129128000Y-94104750D01*
G75*
G02*
X129346750Y-93886000I218750J0D01*
G01*
X129784250Y-93886000D01*
G75*
G02*
X130003000Y-94104750I0J-218750D01*
G01*
X130003000Y-94617250D01*
G75*
G02*
X129784250Y-94836000I-218750J0D01*
G01*
X129346750Y-94836000D01*
G75*
G02*
X129128000Y-94617250I0J218750D01*
G01*
G37*
G36*
G01*
X127553000Y-94617250D02*
X127553000Y-94104750D01*
G75*
G02*
X127771750Y-93886000I218750J0D01*
G01*
X128209250Y-93886000D01*
G75*
G02*
X128428000Y-94104750I0J-218750D01*
G01*
X128428000Y-94617250D01*
G75*
G02*
X128209250Y-94836000I-218750J0D01*
G01*
X127771750Y-94836000D01*
G75*
G02*
X127553000Y-94617250I0J218750D01*
G01*
G37*
G36*
G01*
X160305000Y-73784750D02*
X160305000Y-74297250D01*
G75*
G02*
X160086250Y-74516000I-218750J0D01*
G01*
X159648750Y-74516000D01*
G75*
G02*
X159430000Y-74297250I0J218750D01*
G01*
X159430000Y-73784750D01*
G75*
G02*
X159648750Y-73566000I218750J0D01*
G01*
X160086250Y-73566000D01*
G75*
G02*
X160305000Y-73784750I0J-218750D01*
G01*
G37*
G36*
G01*
X161880000Y-73784750D02*
X161880000Y-74297250D01*
G75*
G02*
X161661250Y-74516000I-218750J0D01*
G01*
X161223750Y-74516000D01*
G75*
G02*
X161005000Y-74297250I0J218750D01*
G01*
X161005000Y-73784750D01*
G75*
G02*
X161223750Y-73566000I218750J0D01*
G01*
X161661250Y-73566000D01*
G75*
G02*
X161880000Y-73784750I0J-218750D01*
G01*
G37*
D21*
X108137200Y-104876600D03*
X106137200Y-105826600D03*
X106137200Y-103926600D03*
G36*
G01*
X124266000Y-75983650D02*
X124266000Y-75471150D01*
G75*
G02*
X124484750Y-75252400I218750J0D01*
G01*
X124922250Y-75252400D01*
G75*
G02*
X125141000Y-75471150I0J-218750D01*
G01*
X125141000Y-75983650D01*
G75*
G02*
X124922250Y-76202400I-218750J0D01*
G01*
X124484750Y-76202400D01*
G75*
G02*
X124266000Y-75983650I0J218750D01*
G01*
G37*
G36*
G01*
X122691000Y-75983650D02*
X122691000Y-75471150D01*
G75*
G02*
X122909750Y-75252400I218750J0D01*
G01*
X123347250Y-75252400D01*
G75*
G02*
X123566000Y-75471150I0J-218750D01*
G01*
X123566000Y-75983650D01*
G75*
G02*
X123347250Y-76202400I-218750J0D01*
G01*
X122909750Y-76202400D01*
G75*
G02*
X122691000Y-75983650I0J218750D01*
G01*
G37*
D23*
X138520000Y-93337800D03*
D24*
X139995000Y-94862800D03*
D23*
X141470000Y-93337800D03*
X121671400Y-67433600D03*
D24*
X123146400Y-68958600D03*
D23*
X124621400Y-67433600D03*
G36*
G01*
X159615850Y-80764900D02*
X159103350Y-80764900D01*
G75*
G02*
X158884600Y-80546150I0J218750D01*
G01*
X158884600Y-80108650D01*
G75*
G02*
X159103350Y-79889900I218750J0D01*
G01*
X159615850Y-79889900D01*
G75*
G02*
X159834600Y-80108650I0J-218750D01*
G01*
X159834600Y-80546150D01*
G75*
G02*
X159615850Y-80764900I-218750J0D01*
G01*
G37*
G36*
G01*
X159615850Y-82339900D02*
X159103350Y-82339900D01*
G75*
G02*
X158884600Y-82121150I0J218750D01*
G01*
X158884600Y-81683650D01*
G75*
G02*
X159103350Y-81464900I218750J0D01*
G01*
X159615850Y-81464900D01*
G75*
G02*
X159834600Y-81683650I0J-218750D01*
G01*
X159834600Y-82121150D01*
G75*
G02*
X159615850Y-82339900I-218750J0D01*
G01*
G37*
D25*
X159867600Y-64319400D03*
X159867600Y-68319400D03*
G36*
G01*
X133586350Y-102468600D02*
X134098850Y-102468600D01*
G75*
G02*
X134317600Y-102687350I0J-218750D01*
G01*
X134317600Y-103124850D01*
G75*
G02*
X134098850Y-103343600I-218750J0D01*
G01*
X133586350Y-103343600D01*
G75*
G02*
X133367600Y-103124850I0J218750D01*
G01*
X133367600Y-102687350D01*
G75*
G02*
X133586350Y-102468600I218750J0D01*
G01*
G37*
G36*
G01*
X133586350Y-100893600D02*
X134098850Y-100893600D01*
G75*
G02*
X134317600Y-101112350I0J-218750D01*
G01*
X134317600Y-101549850D01*
G75*
G02*
X134098850Y-101768600I-218750J0D01*
G01*
X133586350Y-101768600D01*
G75*
G02*
X133367600Y-101549850I0J218750D01*
G01*
X133367600Y-101112350D01*
G75*
G02*
X133586350Y-100893600I218750J0D01*
G01*
G37*
G36*
G01*
X131884550Y-102443100D02*
X132397050Y-102443100D01*
G75*
G02*
X132615800Y-102661850I0J-218750D01*
G01*
X132615800Y-103099350D01*
G75*
G02*
X132397050Y-103318100I-218750J0D01*
G01*
X131884550Y-103318100D01*
G75*
G02*
X131665800Y-103099350I0J218750D01*
G01*
X131665800Y-102661850D01*
G75*
G02*
X131884550Y-102443100I218750J0D01*
G01*
G37*
G36*
G01*
X131884550Y-100868100D02*
X132397050Y-100868100D01*
G75*
G02*
X132615800Y-101086850I0J-218750D01*
G01*
X132615800Y-101524350D01*
G75*
G02*
X132397050Y-101743100I-218750J0D01*
G01*
X131884550Y-101743100D01*
G75*
G02*
X131665800Y-101524350I0J218750D01*
G01*
X131665800Y-101086850D01*
G75*
G02*
X131884550Y-100868100I218750J0D01*
G01*
G37*
G36*
G01*
X129830350Y-102517800D02*
X130742850Y-102517800D01*
G75*
G02*
X130986600Y-102761550I0J-243750D01*
G01*
X130986600Y-103249050D01*
G75*
G02*
X130742850Y-103492800I-243750J0D01*
G01*
X129830350Y-103492800D01*
G75*
G02*
X129586600Y-103249050I0J243750D01*
G01*
X129586600Y-102761550D01*
G75*
G02*
X129830350Y-102517800I243750J0D01*
G01*
G37*
G36*
G01*
X129830350Y-100642800D02*
X130742850Y-100642800D01*
G75*
G02*
X130986600Y-100886550I0J-243750D01*
G01*
X130986600Y-101374050D01*
G75*
G02*
X130742850Y-101617800I-243750J0D01*
G01*
X129830350Y-101617800D01*
G75*
G02*
X129586600Y-101374050I0J243750D01*
G01*
X129586600Y-100886550D01*
G75*
G02*
X129830350Y-100642800I243750J0D01*
G01*
G37*
G36*
G01*
X112350000Y-89256250D02*
X112350000Y-88743750D01*
G75*
G02*
X112568750Y-88525000I218750J0D01*
G01*
X113006250Y-88525000D01*
G75*
G02*
X113225000Y-88743750I0J-218750D01*
G01*
X113225000Y-89256250D01*
G75*
G02*
X113006250Y-89475000I-218750J0D01*
G01*
X112568750Y-89475000D01*
G75*
G02*
X112350000Y-89256250I0J218750D01*
G01*
G37*
G36*
G01*
X110775000Y-89256250D02*
X110775000Y-88743750D01*
G75*
G02*
X110993750Y-88525000I218750J0D01*
G01*
X111431250Y-88525000D01*
G75*
G02*
X111650000Y-88743750I0J-218750D01*
G01*
X111650000Y-89256250D01*
G75*
G02*
X111431250Y-89475000I-218750J0D01*
G01*
X110993750Y-89475000D01*
G75*
G02*
X110775000Y-89256250I0J218750D01*
G01*
G37*
G36*
G01*
X112350000Y-85981250D02*
X112350000Y-85468750D01*
G75*
G02*
X112568750Y-85250000I218750J0D01*
G01*
X113006250Y-85250000D01*
G75*
G02*
X113225000Y-85468750I0J-218750D01*
G01*
X113225000Y-85981250D01*
G75*
G02*
X113006250Y-86200000I-218750J0D01*
G01*
X112568750Y-86200000D01*
G75*
G02*
X112350000Y-85981250I0J218750D01*
G01*
G37*
G36*
G01*
X110775000Y-85981250D02*
X110775000Y-85468750D01*
G75*
G02*
X110993750Y-85250000I218750J0D01*
G01*
X111431250Y-85250000D01*
G75*
G02*
X111650000Y-85468750I0J-218750D01*
G01*
X111650000Y-85981250D01*
G75*
G02*
X111431250Y-86200000I-218750J0D01*
G01*
X110993750Y-86200000D01*
G75*
G02*
X110775000Y-85981250I0J218750D01*
G01*
G37*
G36*
G01*
X145552000Y-95440650D02*
X145552000Y-94928150D01*
G75*
G02*
X145770750Y-94709400I218750J0D01*
G01*
X146208250Y-94709400D01*
G75*
G02*
X146427000Y-94928150I0J-218750D01*
G01*
X146427000Y-95440650D01*
G75*
G02*
X146208250Y-95659400I-218750J0D01*
G01*
X145770750Y-95659400D01*
G75*
G02*
X145552000Y-95440650I0J218750D01*
G01*
G37*
G36*
G01*
X143977000Y-95440650D02*
X143977000Y-94928150D01*
G75*
G02*
X144195750Y-94709400I218750J0D01*
G01*
X144633250Y-94709400D01*
G75*
G02*
X144852000Y-94928150I0J-218750D01*
G01*
X144852000Y-95440650D01*
G75*
G02*
X144633250Y-95659400I-218750J0D01*
G01*
X144195750Y-95659400D01*
G75*
G02*
X143977000Y-95440650I0J218750D01*
G01*
G37*
G36*
G01*
X155907450Y-94087200D02*
X155394950Y-94087200D01*
G75*
G02*
X155176200Y-93868450I0J218750D01*
G01*
X155176200Y-93430950D01*
G75*
G02*
X155394950Y-93212200I218750J0D01*
G01*
X155907450Y-93212200D01*
G75*
G02*
X156126200Y-93430950I0J-218750D01*
G01*
X156126200Y-93868450D01*
G75*
G02*
X155907450Y-94087200I-218750J0D01*
G01*
G37*
G36*
G01*
X155907450Y-95662200D02*
X155394950Y-95662200D01*
G75*
G02*
X155176200Y-95443450I0J218750D01*
G01*
X155176200Y-95005950D01*
G75*
G02*
X155394950Y-94787200I218750J0D01*
G01*
X155907450Y-94787200D01*
G75*
G02*
X156126200Y-95005950I0J-218750D01*
G01*
X156126200Y-95443450D01*
G75*
G02*
X155907450Y-95662200I-218750J0D01*
G01*
G37*
G36*
G01*
X159100000Y-113681450D02*
X159100000Y-113168950D01*
G75*
G02*
X159318750Y-112950200I218750J0D01*
G01*
X159756250Y-112950200D01*
G75*
G02*
X159975000Y-113168950I0J-218750D01*
G01*
X159975000Y-113681450D01*
G75*
G02*
X159756250Y-113900200I-218750J0D01*
G01*
X159318750Y-113900200D01*
G75*
G02*
X159100000Y-113681450I0J218750D01*
G01*
G37*
G36*
G01*
X157525000Y-113681450D02*
X157525000Y-113168950D01*
G75*
G02*
X157743750Y-112950200I218750J0D01*
G01*
X158181250Y-112950200D01*
G75*
G02*
X158400000Y-113168950I0J-218750D01*
G01*
X158400000Y-113681450D01*
G75*
G02*
X158181250Y-113900200I-218750J0D01*
G01*
X157743750Y-113900200D01*
G75*
G02*
X157525000Y-113681450I0J218750D01*
G01*
G37*
G36*
G01*
X126904000Y-76451750D02*
X126904000Y-76964250D01*
G75*
G02*
X126685250Y-77183000I-218750J0D01*
G01*
X126247750Y-77183000D01*
G75*
G02*
X126029000Y-76964250I0J218750D01*
G01*
X126029000Y-76451750D01*
G75*
G02*
X126247750Y-76233000I218750J0D01*
G01*
X126685250Y-76233000D01*
G75*
G02*
X126904000Y-76451750I0J-218750D01*
G01*
G37*
G36*
G01*
X128479000Y-76451750D02*
X128479000Y-76964250D01*
G75*
G02*
X128260250Y-77183000I-218750J0D01*
G01*
X127822750Y-77183000D01*
G75*
G02*
X127604000Y-76964250I0J218750D01*
G01*
X127604000Y-76451750D01*
G75*
G02*
X127822750Y-76233000I218750J0D01*
G01*
X128260250Y-76233000D01*
G75*
G02*
X128479000Y-76451750I0J-218750D01*
G01*
G37*
G36*
G01*
X139697750Y-83535000D02*
X140210250Y-83535000D01*
G75*
G02*
X140429000Y-83753750I0J-218750D01*
G01*
X140429000Y-84191250D01*
G75*
G02*
X140210250Y-84410000I-218750J0D01*
G01*
X139697750Y-84410000D01*
G75*
G02*
X139479000Y-84191250I0J218750D01*
G01*
X139479000Y-83753750D01*
G75*
G02*
X139697750Y-83535000I218750J0D01*
G01*
G37*
G36*
G01*
X139697750Y-81960000D02*
X140210250Y-81960000D01*
G75*
G02*
X140429000Y-82178750I0J-218750D01*
G01*
X140429000Y-82616250D01*
G75*
G02*
X140210250Y-82835000I-218750J0D01*
G01*
X139697750Y-82835000D01*
G75*
G02*
X139479000Y-82616250I0J218750D01*
G01*
X139479000Y-82178750D01*
G75*
G02*
X139697750Y-81960000I218750J0D01*
G01*
G37*
G36*
G01*
X127251750Y-80055200D02*
X127764250Y-80055200D01*
G75*
G02*
X127983000Y-80273950I0J-218750D01*
G01*
X127983000Y-80711450D01*
G75*
G02*
X127764250Y-80930200I-218750J0D01*
G01*
X127251750Y-80930200D01*
G75*
G02*
X127033000Y-80711450I0J218750D01*
G01*
X127033000Y-80273950D01*
G75*
G02*
X127251750Y-80055200I218750J0D01*
G01*
G37*
G36*
G01*
X127251750Y-78480200D02*
X127764250Y-78480200D01*
G75*
G02*
X127983000Y-78698950I0J-218750D01*
G01*
X127983000Y-79136450D01*
G75*
G02*
X127764250Y-79355200I-218750J0D01*
G01*
X127251750Y-79355200D01*
G75*
G02*
X127033000Y-79136450I0J218750D01*
G01*
X127033000Y-78698950D01*
G75*
G02*
X127251750Y-78480200I218750J0D01*
G01*
G37*
G36*
G01*
X122677600Y-111874150D02*
X122677600Y-112386650D01*
G75*
G02*
X122458850Y-112605400I-218750J0D01*
G01*
X122021350Y-112605400D01*
G75*
G02*
X121802600Y-112386650I0J218750D01*
G01*
X121802600Y-111874150D01*
G75*
G02*
X122021350Y-111655400I218750J0D01*
G01*
X122458850Y-111655400D01*
G75*
G02*
X122677600Y-111874150I0J-218750D01*
G01*
G37*
G36*
G01*
X124252600Y-111874150D02*
X124252600Y-112386650D01*
G75*
G02*
X124033850Y-112605400I-218750J0D01*
G01*
X123596350Y-112605400D01*
G75*
G02*
X123377600Y-112386650I0J218750D01*
G01*
X123377600Y-111874150D01*
G75*
G02*
X123596350Y-111655400I218750J0D01*
G01*
X124033850Y-111655400D01*
G75*
G02*
X124252600Y-111874150I0J-218750D01*
G01*
G37*
G36*
G01*
X111762250Y-107498400D02*
X111249750Y-107498400D01*
G75*
G02*
X111031000Y-107279650I0J218750D01*
G01*
X111031000Y-106842150D01*
G75*
G02*
X111249750Y-106623400I218750J0D01*
G01*
X111762250Y-106623400D01*
G75*
G02*
X111981000Y-106842150I0J-218750D01*
G01*
X111981000Y-107279650D01*
G75*
G02*
X111762250Y-107498400I-218750J0D01*
G01*
G37*
G36*
G01*
X111762250Y-109073400D02*
X111249750Y-109073400D01*
G75*
G02*
X111031000Y-108854650I0J218750D01*
G01*
X111031000Y-108417150D01*
G75*
G02*
X111249750Y-108198400I218750J0D01*
G01*
X111762250Y-108198400D01*
G75*
G02*
X111981000Y-108417150I0J-218750D01*
G01*
X111981000Y-108854650D01*
G75*
G02*
X111762250Y-109073400I-218750J0D01*
G01*
G37*
G36*
G01*
X122886150Y-80155200D02*
X123798650Y-80155200D01*
G75*
G02*
X124042400Y-80398950I0J-243750D01*
G01*
X124042400Y-80886450D01*
G75*
G02*
X123798650Y-81130200I-243750J0D01*
G01*
X122886150Y-81130200D01*
G75*
G02*
X122642400Y-80886450I0J243750D01*
G01*
X122642400Y-80398950D01*
G75*
G02*
X122886150Y-80155200I243750J0D01*
G01*
G37*
G36*
G01*
X122886150Y-78280200D02*
X123798650Y-78280200D01*
G75*
G02*
X124042400Y-78523950I0J-243750D01*
G01*
X124042400Y-79011450D01*
G75*
G02*
X123798650Y-79255200I-243750J0D01*
G01*
X122886150Y-79255200D01*
G75*
G02*
X122642400Y-79011450I0J243750D01*
G01*
X122642400Y-78523950D01*
G75*
G02*
X122886150Y-78280200I243750J0D01*
G01*
G37*
G36*
G01*
X137383000Y-85727250D02*
X137383000Y-85214750D01*
G75*
G02*
X137601750Y-84996000I218750J0D01*
G01*
X138039250Y-84996000D01*
G75*
G02*
X138258000Y-85214750I0J-218750D01*
G01*
X138258000Y-85727250D01*
G75*
G02*
X138039250Y-85946000I-218750J0D01*
G01*
X137601750Y-85946000D01*
G75*
G02*
X137383000Y-85727250I0J218750D01*
G01*
G37*
G36*
G01*
X135808000Y-85727250D02*
X135808000Y-85214750D01*
G75*
G02*
X136026750Y-84996000I218750J0D01*
G01*
X136464250Y-84996000D01*
G75*
G02*
X136683000Y-85214750I0J-218750D01*
G01*
X136683000Y-85727250D01*
G75*
G02*
X136464250Y-85946000I-218750J0D01*
G01*
X136026750Y-85946000D01*
G75*
G02*
X135808000Y-85727250I0J218750D01*
G01*
G37*
G36*
G01*
X131285500Y-85976750D02*
X131285500Y-86489250D01*
G75*
G02*
X131066750Y-86708000I-218750J0D01*
G01*
X130629250Y-86708000D01*
G75*
G02*
X130410500Y-86489250I0J218750D01*
G01*
X130410500Y-85976750D01*
G75*
G02*
X130629250Y-85758000I218750J0D01*
G01*
X131066750Y-85758000D01*
G75*
G02*
X131285500Y-85976750I0J-218750D01*
G01*
G37*
G36*
G01*
X132860500Y-85976750D02*
X132860500Y-86489250D01*
G75*
G02*
X132641750Y-86708000I-218750J0D01*
G01*
X132204250Y-86708000D01*
G75*
G02*
X131985500Y-86489250I0J218750D01*
G01*
X131985500Y-85976750D01*
G75*
G02*
X132204250Y-85758000I218750J0D01*
G01*
X132641750Y-85758000D01*
G75*
G02*
X132860500Y-85976750I0J-218750D01*
G01*
G37*
G36*
G01*
X124153400Y-107850200D02*
X122003400Y-107850200D01*
G75*
G02*
X121753400Y-107600200I0J250000D01*
G01*
X121753400Y-106850200D01*
G75*
G02*
X122003400Y-106600200I250000J0D01*
G01*
X124153400Y-106600200D01*
G75*
G02*
X124403400Y-106850200I0J-250000D01*
G01*
X124403400Y-107600200D01*
G75*
G02*
X124153400Y-107850200I-250000J0D01*
G01*
G37*
G36*
G01*
X124153400Y-110650200D02*
X122003400Y-110650200D01*
G75*
G02*
X121753400Y-110400200I0J250000D01*
G01*
X121753400Y-109650200D01*
G75*
G02*
X122003400Y-109400200I250000J0D01*
G01*
X124153400Y-109400200D01*
G75*
G02*
X124403400Y-109650200I0J-250000D01*
G01*
X124403400Y-110400200D01*
G75*
G02*
X124153400Y-110650200I-250000J0D01*
G01*
G37*
G36*
G01*
X147187600Y-57884800D02*
X148437600Y-57884800D01*
G75*
G02*
X148687600Y-58134800I0J-250000D01*
G01*
X148687600Y-58884800D01*
G75*
G02*
X148437600Y-59134800I-250000J0D01*
G01*
X147187600Y-59134800D01*
G75*
G02*
X146937600Y-58884800I0J250000D01*
G01*
X146937600Y-58134800D01*
G75*
G02*
X147187600Y-57884800I250000J0D01*
G01*
G37*
G36*
G01*
X147187600Y-55084800D02*
X148437600Y-55084800D01*
G75*
G02*
X148687600Y-55334800I0J-250000D01*
G01*
X148687600Y-56084800D01*
G75*
G02*
X148437600Y-56334800I-250000J0D01*
G01*
X147187600Y-56334800D01*
G75*
G02*
X146937600Y-56084800I0J250000D01*
G01*
X146937600Y-55334800D01*
G75*
G02*
X147187600Y-55084800I250000J0D01*
G01*
G37*
G36*
G01*
X126910650Y-57852000D02*
X126398150Y-57852000D01*
G75*
G02*
X126179400Y-57633250I0J218750D01*
G01*
X126179400Y-57195750D01*
G75*
G02*
X126398150Y-56977000I218750J0D01*
G01*
X126910650Y-56977000D01*
G75*
G02*
X127129400Y-57195750I0J-218750D01*
G01*
X127129400Y-57633250D01*
G75*
G02*
X126910650Y-57852000I-218750J0D01*
G01*
G37*
G36*
G01*
X126910650Y-59427000D02*
X126398150Y-59427000D01*
G75*
G02*
X126179400Y-59208250I0J218750D01*
G01*
X126179400Y-58770750D01*
G75*
G02*
X126398150Y-58552000I218750J0D01*
G01*
X126910650Y-58552000D01*
G75*
G02*
X127129400Y-58770750I0J-218750D01*
G01*
X127129400Y-59208250D01*
G75*
G02*
X126910650Y-59427000I-218750J0D01*
G01*
G37*
G36*
G01*
X135813350Y-57521800D02*
X135300850Y-57521800D01*
G75*
G02*
X135082100Y-57303050I0J218750D01*
G01*
X135082100Y-56865550D01*
G75*
G02*
X135300850Y-56646800I218750J0D01*
G01*
X135813350Y-56646800D01*
G75*
G02*
X136032100Y-56865550I0J-218750D01*
G01*
X136032100Y-57303050D01*
G75*
G02*
X135813350Y-57521800I-218750J0D01*
G01*
G37*
G36*
G01*
X135813350Y-59096800D02*
X135300850Y-59096800D01*
G75*
G02*
X135082100Y-58878050I0J218750D01*
G01*
X135082100Y-58440550D01*
G75*
G02*
X135300850Y-58221800I218750J0D01*
G01*
X135813350Y-58221800D01*
G75*
G02*
X136032100Y-58440550I0J-218750D01*
G01*
X136032100Y-58878050D01*
G75*
G02*
X135813350Y-59096800I-218750J0D01*
G01*
G37*
G36*
G01*
X110702250Y-55135800D02*
X109789750Y-55135800D01*
G75*
G02*
X109546000Y-54892050I0J243750D01*
G01*
X109546000Y-54404550D01*
G75*
G02*
X109789750Y-54160800I243750J0D01*
G01*
X110702250Y-54160800D01*
G75*
G02*
X110946000Y-54404550I0J-243750D01*
G01*
X110946000Y-54892050D01*
G75*
G02*
X110702250Y-55135800I-243750J0D01*
G01*
G37*
G36*
G01*
X110702250Y-57010800D02*
X109789750Y-57010800D01*
G75*
G02*
X109546000Y-56767050I0J243750D01*
G01*
X109546000Y-56279550D01*
G75*
G02*
X109789750Y-56035800I243750J0D01*
G01*
X110702250Y-56035800D01*
G75*
G02*
X110946000Y-56279550I0J-243750D01*
G01*
X110946000Y-56767050D01*
G75*
G02*
X110702250Y-57010800I-243750J0D01*
G01*
G37*
G36*
G01*
X110702250Y-59174400D02*
X109789750Y-59174400D01*
G75*
G02*
X109546000Y-58930650I0J243750D01*
G01*
X109546000Y-58443150D01*
G75*
G02*
X109789750Y-58199400I243750J0D01*
G01*
X110702250Y-58199400D01*
G75*
G02*
X110946000Y-58443150I0J-243750D01*
G01*
X110946000Y-58930650D01*
G75*
G02*
X110702250Y-59174400I-243750J0D01*
G01*
G37*
G36*
G01*
X110702250Y-61049400D02*
X109789750Y-61049400D01*
G75*
G02*
X109546000Y-60805650I0J243750D01*
G01*
X109546000Y-60318150D01*
G75*
G02*
X109789750Y-60074400I243750J0D01*
G01*
X110702250Y-60074400D01*
G75*
G02*
X110946000Y-60318150I0J-243750D01*
G01*
X110946000Y-60805650D01*
G75*
G02*
X110702250Y-61049400I-243750J0D01*
G01*
G37*
G36*
G01*
X134193800Y-68196750D02*
X134193800Y-68709250D01*
G75*
G02*
X133975050Y-68928000I-218750J0D01*
G01*
X133537550Y-68928000D01*
G75*
G02*
X133318800Y-68709250I0J218750D01*
G01*
X133318800Y-68196750D01*
G75*
G02*
X133537550Y-67978000I218750J0D01*
G01*
X133975050Y-67978000D01*
G75*
G02*
X134193800Y-68196750I0J-218750D01*
G01*
G37*
G36*
G01*
X135768800Y-68196750D02*
X135768800Y-68709250D01*
G75*
G02*
X135550050Y-68928000I-218750J0D01*
G01*
X135112550Y-68928000D01*
G75*
G02*
X134893800Y-68709250I0J218750D01*
G01*
X134893800Y-68196750D01*
G75*
G02*
X135112550Y-67978000I218750J0D01*
G01*
X135550050Y-67978000D01*
G75*
G02*
X135768800Y-68196750I0J-218750D01*
G01*
G37*
G36*
G01*
X134490750Y-90774000D02*
X135003250Y-90774000D01*
G75*
G02*
X135222000Y-90992750I0J-218750D01*
G01*
X135222000Y-91430250D01*
G75*
G02*
X135003250Y-91649000I-218750J0D01*
G01*
X134490750Y-91649000D01*
G75*
G02*
X134272000Y-91430250I0J218750D01*
G01*
X134272000Y-90992750D01*
G75*
G02*
X134490750Y-90774000I218750J0D01*
G01*
G37*
G36*
G01*
X134490750Y-89199000D02*
X135003250Y-89199000D01*
G75*
G02*
X135222000Y-89417750I0J-218750D01*
G01*
X135222000Y-89855250D01*
G75*
G02*
X135003250Y-90074000I-218750J0D01*
G01*
X134490750Y-90074000D01*
G75*
G02*
X134272000Y-89855250I0J218750D01*
G01*
X134272000Y-89417750D01*
G75*
G02*
X134490750Y-89199000I218750J0D01*
G01*
G37*
G36*
G01*
X138272000Y-68709250D02*
X138272000Y-68196750D01*
G75*
G02*
X138490750Y-67978000I218750J0D01*
G01*
X138928250Y-67978000D01*
G75*
G02*
X139147000Y-68196750I0J-218750D01*
G01*
X139147000Y-68709250D01*
G75*
G02*
X138928250Y-68928000I-218750J0D01*
G01*
X138490750Y-68928000D01*
G75*
G02*
X138272000Y-68709250I0J218750D01*
G01*
G37*
G36*
G01*
X136697000Y-68709250D02*
X136697000Y-68196750D01*
G75*
G02*
X136915750Y-67978000I218750J0D01*
G01*
X137353250Y-67978000D01*
G75*
G02*
X137572000Y-68196750I0J-218750D01*
G01*
X137572000Y-68709250D01*
G75*
G02*
X137353250Y-68928000I-218750J0D01*
G01*
X136915750Y-68928000D01*
G75*
G02*
X136697000Y-68709250I0J218750D01*
G01*
G37*
G36*
G01*
X118068250Y-55135800D02*
X117155750Y-55135800D01*
G75*
G02*
X116912000Y-54892050I0J243750D01*
G01*
X116912000Y-54404550D01*
G75*
G02*
X117155750Y-54160800I243750J0D01*
G01*
X118068250Y-54160800D01*
G75*
G02*
X118312000Y-54404550I0J-243750D01*
G01*
X118312000Y-54892050D01*
G75*
G02*
X118068250Y-55135800I-243750J0D01*
G01*
G37*
G36*
G01*
X118068250Y-57010800D02*
X117155750Y-57010800D01*
G75*
G02*
X116912000Y-56767050I0J243750D01*
G01*
X116912000Y-56279550D01*
G75*
G02*
X117155750Y-56035800I243750J0D01*
G01*
X118068250Y-56035800D01*
G75*
G02*
X118312000Y-56279550I0J-243750D01*
G01*
X118312000Y-56767050D01*
G75*
G02*
X118068250Y-57010800I-243750J0D01*
G01*
G37*
G36*
G01*
X118068250Y-59237900D02*
X117155750Y-59237900D01*
G75*
G02*
X116912000Y-58994150I0J243750D01*
G01*
X116912000Y-58506650D01*
G75*
G02*
X117155750Y-58262900I243750J0D01*
G01*
X118068250Y-58262900D01*
G75*
G02*
X118312000Y-58506650I0J-243750D01*
G01*
X118312000Y-58994150D01*
G75*
G02*
X118068250Y-59237900I-243750J0D01*
G01*
G37*
G36*
G01*
X118068250Y-61112900D02*
X117155750Y-61112900D01*
G75*
G02*
X116912000Y-60869150I0J243750D01*
G01*
X116912000Y-60381650D01*
G75*
G02*
X117155750Y-60137900I243750J0D01*
G01*
X118068250Y-60137900D01*
G75*
G02*
X118312000Y-60381650I0J-243750D01*
G01*
X118312000Y-60869150D01*
G75*
G02*
X118068250Y-61112900I-243750J0D01*
G01*
G37*
G36*
G01*
X122552750Y-90774000D02*
X123065250Y-90774000D01*
G75*
G02*
X123284000Y-90992750I0J-218750D01*
G01*
X123284000Y-91430250D01*
G75*
G02*
X123065250Y-91649000I-218750J0D01*
G01*
X122552750Y-91649000D01*
G75*
G02*
X122334000Y-91430250I0J218750D01*
G01*
X122334000Y-90992750D01*
G75*
G02*
X122552750Y-90774000I218750J0D01*
G01*
G37*
G36*
G01*
X122552750Y-89199000D02*
X123065250Y-89199000D01*
G75*
G02*
X123284000Y-89417750I0J-218750D01*
G01*
X123284000Y-89855250D01*
G75*
G02*
X123065250Y-90074000I-218750J0D01*
G01*
X122552750Y-90074000D01*
G75*
G02*
X122334000Y-89855250I0J218750D01*
G01*
X122334000Y-89417750D01*
G75*
G02*
X122552750Y-89199000I218750J0D01*
G01*
G37*
G36*
G01*
X137847600Y-62710800D02*
X139997600Y-62710800D01*
G75*
G02*
X140247600Y-62960800I0J-250000D01*
G01*
X140247600Y-63710800D01*
G75*
G02*
X139997600Y-63960800I-250000J0D01*
G01*
X137847600Y-63960800D01*
G75*
G02*
X137597600Y-63710800I0J250000D01*
G01*
X137597600Y-62960800D01*
G75*
G02*
X137847600Y-62710800I250000J0D01*
G01*
G37*
G36*
G01*
X137847600Y-59910800D02*
X139997600Y-59910800D01*
G75*
G02*
X140247600Y-60160800I0J-250000D01*
G01*
X140247600Y-60910800D01*
G75*
G02*
X139997600Y-61160800I-250000J0D01*
G01*
X137847600Y-61160800D01*
G75*
G02*
X137597600Y-60910800I0J250000D01*
G01*
X137597600Y-60160800D01*
G75*
G02*
X137847600Y-59910800I250000J0D01*
G01*
G37*
G36*
G01*
X123359450Y-72989800D02*
X122846950Y-72989800D01*
G75*
G02*
X122628200Y-72771050I0J218750D01*
G01*
X122628200Y-72333550D01*
G75*
G02*
X122846950Y-72114800I218750J0D01*
G01*
X123359450Y-72114800D01*
G75*
G02*
X123578200Y-72333550I0J-218750D01*
G01*
X123578200Y-72771050D01*
G75*
G02*
X123359450Y-72989800I-218750J0D01*
G01*
G37*
G36*
G01*
X123359450Y-74564800D02*
X122846950Y-74564800D01*
G75*
G02*
X122628200Y-74346050I0J218750D01*
G01*
X122628200Y-73908550D01*
G75*
G02*
X122846950Y-73689800I218750J0D01*
G01*
X123359450Y-73689800D01*
G75*
G02*
X123578200Y-73908550I0J-218750D01*
G01*
X123578200Y-74346050D01*
G75*
G02*
X123359450Y-74564800I-218750J0D01*
G01*
G37*
G36*
G01*
X124266000Y-71208450D02*
X124266000Y-70695950D01*
G75*
G02*
X124484750Y-70477200I218750J0D01*
G01*
X124922250Y-70477200D01*
G75*
G02*
X125141000Y-70695950I0J-218750D01*
G01*
X125141000Y-71208450D01*
G75*
G02*
X124922250Y-71427200I-218750J0D01*
G01*
X124484750Y-71427200D01*
G75*
G02*
X124266000Y-71208450I0J218750D01*
G01*
G37*
G36*
G01*
X122691000Y-71208450D02*
X122691000Y-70695950D01*
G75*
G02*
X122909750Y-70477200I218750J0D01*
G01*
X123347250Y-70477200D01*
G75*
G02*
X123566000Y-70695950I0J-218750D01*
G01*
X123566000Y-71208450D01*
G75*
G02*
X123347250Y-71427200I-218750J0D01*
G01*
X122909750Y-71427200D01*
G75*
G02*
X122691000Y-71208450I0J218750D01*
G01*
G37*
M02*
