G04 #@! TF.GenerationSoftware,KiCad,Pcbnew,5.1.9-73d0e3b20d~88~ubuntu20.04.1*
G04 #@! TF.CreationDate,2020-12-28T11:38:45+01:00*
G04 #@! TF.ProjectId,cam,63616d2e-6b69-4636-9164-5f7063625858,rev?*
G04 #@! TF.SameCoordinates,Original*
G04 #@! TF.FileFunction,Soldermask,Bot*
G04 #@! TF.FilePolarity,Negative*
%FSLAX46Y46*%
G04 Gerber Fmt 4.6, Leading zero omitted, Abs format (unit mm)*
G04 Created by KiCad (PCBNEW 5.1.9-73d0e3b20d~88~ubuntu20.04.1) date 2020-12-28 11:38:45*
%MOMM*%
%LPD*%
G01*
G04 APERTURE LIST*
%ADD10O,1.102000X1.102000*%
%ADD11C,1.902000*%
%ADD12C,3.302000*%
%ADD13O,2.102000X1.802000*%
%ADD14C,0.100000*%
G04 APERTURE END LIST*
D10*
X127698500Y-64516000D03*
X127698500Y-63246000D03*
X128968500Y-64516000D03*
X128968500Y-63246000D03*
X130238500Y-64516000D03*
X130238500Y-63246000D03*
X131508500Y-64516000D03*
X131508500Y-63246000D03*
X132778500Y-64516000D03*
G36*
G01*
X132278500Y-62695000D02*
X133278500Y-62695000D01*
G75*
G02*
X133329500Y-62746000I0J-51000D01*
G01*
X133329500Y-63746000D01*
G75*
G02*
X133278500Y-63797000I-51000J0D01*
G01*
X132278500Y-63797000D01*
G75*
G02*
X132227500Y-63746000I0J51000D01*
G01*
X132227500Y-62746000D01*
G75*
G02*
X132278500Y-62695000I51000J0D01*
G01*
G37*
X168021000Y-74295000D03*
X168021000Y-75565000D03*
X166751000Y-74295000D03*
X166751000Y-75565000D03*
X165481000Y-74295000D03*
G36*
G01*
X165981000Y-76116000D02*
X164981000Y-76116000D01*
G75*
G02*
X164930000Y-76065000I0J51000D01*
G01*
X164930000Y-75065000D01*
G75*
G02*
X164981000Y-75014000I51000J0D01*
G01*
X165981000Y-75014000D01*
G75*
G02*
X166032000Y-75065000I0J-51000D01*
G01*
X166032000Y-76065000D01*
G75*
G02*
X165981000Y-76116000I-51000J0D01*
G01*
G37*
D11*
X117094000Y-98425000D03*
X153670000Y-55753000D03*
X105791000Y-64897000D03*
X110337600Y-64897000D03*
D12*
X170000000Y-112000000D03*
X170000000Y-57000000D03*
X107000000Y-98500000D03*
X107000000Y-71500000D03*
X105000000Y-57000000D03*
X105000000Y-112000000D03*
D13*
X166319200Y-67701800D03*
G36*
G01*
X165533200Y-64300800D02*
X167105200Y-64300800D01*
G75*
G02*
X167370200Y-64565800I0J-265000D01*
G01*
X167370200Y-65837800D01*
G75*
G02*
X167105200Y-66102800I-265000J0D01*
G01*
X165533200Y-66102800D01*
G75*
G02*
X165268200Y-65837800I0J265000D01*
G01*
X165268200Y-64565800D01*
G75*
G02*
X165533200Y-64300800I265000J0D01*
G01*
G37*
D14*
G36*
X166033990Y-75242882D02*
G01*
X166036372Y-75267069D01*
X166043372Y-75290144D01*
X166054737Y-75311408D01*
X166070032Y-75330045D01*
X166088669Y-75345340D01*
X166109933Y-75356705D01*
X166133008Y-75363705D01*
X166156999Y-75366068D01*
X166180990Y-75363705D01*
X166204065Y-75356705D01*
X166225329Y-75345340D01*
X166243966Y-75330045D01*
X166259324Y-75311330D01*
X166262216Y-75307002D01*
X166264010Y-75306117D01*
X166265673Y-75307228D01*
X166265727Y-75308878D01*
X166225650Y-75405635D01*
X166204653Y-75511192D01*
X166204653Y-75618808D01*
X166225650Y-75724365D01*
X166265727Y-75821122D01*
X166265466Y-75823105D01*
X166263618Y-75823870D01*
X166262216Y-75822998D01*
X166259324Y-75818670D01*
X166243965Y-75799955D01*
X166225328Y-75784660D01*
X166204065Y-75773295D01*
X166180990Y-75766295D01*
X166156998Y-75763932D01*
X166133007Y-75766295D01*
X166109932Y-75773295D01*
X166088669Y-75784660D01*
X166070032Y-75799956D01*
X166054737Y-75818593D01*
X166043372Y-75839856D01*
X166036372Y-75862931D01*
X166033990Y-75887118D01*
X166032825Y-75888744D01*
X166030835Y-75888548D01*
X166030000Y-75886922D01*
X166030000Y-75243078D01*
X166031000Y-75241346D01*
X166033000Y-75241346D01*
X166033990Y-75242882D01*
G37*
G36*
X167500287Y-75392256D02*
G01*
X167500437Y-75394077D01*
X167495650Y-75405635D01*
X167474653Y-75511192D01*
X167474653Y-75618808D01*
X167495650Y-75724365D01*
X167500437Y-75735923D01*
X167500176Y-75737906D01*
X167498328Y-75738671D01*
X167496825Y-75737631D01*
X167488262Y-75721609D01*
X167472967Y-75702972D01*
X167454330Y-75687677D01*
X167433066Y-75676312D01*
X167409991Y-75669312D01*
X167386000Y-75666949D01*
X167362009Y-75669312D01*
X167338934Y-75676312D01*
X167317670Y-75687677D01*
X167299033Y-75702972D01*
X167283738Y-75721609D01*
X167275175Y-75737631D01*
X167273476Y-75738687D01*
X167271713Y-75737744D01*
X167271563Y-75735923D01*
X167276350Y-75724365D01*
X167297347Y-75618808D01*
X167297347Y-75511192D01*
X167276350Y-75405635D01*
X167271563Y-75394077D01*
X167271824Y-75392094D01*
X167273672Y-75391329D01*
X167275175Y-75392369D01*
X167283738Y-75408391D01*
X167299033Y-75427028D01*
X167317670Y-75442323D01*
X167338934Y-75453688D01*
X167362009Y-75460688D01*
X167386000Y-75463051D01*
X167409991Y-75460688D01*
X167433066Y-75453688D01*
X167454330Y-75442323D01*
X167472967Y-75427028D01*
X167488262Y-75408391D01*
X167496825Y-75392369D01*
X167498524Y-75391313D01*
X167500287Y-75392256D01*
G37*
G36*
X166923906Y-74815824D02*
G01*
X166924671Y-74817672D01*
X166923631Y-74819175D01*
X166907609Y-74827738D01*
X166888972Y-74843033D01*
X166873677Y-74861670D01*
X166862312Y-74882934D01*
X166855312Y-74906009D01*
X166852949Y-74930000D01*
X166855312Y-74953991D01*
X166862312Y-74977066D01*
X166873677Y-74998330D01*
X166888972Y-75016967D01*
X166907609Y-75032262D01*
X166923631Y-75040825D01*
X166924687Y-75042524D01*
X166923744Y-75044287D01*
X166921923Y-75044437D01*
X166910365Y-75039650D01*
X166804808Y-75018653D01*
X166697192Y-75018653D01*
X166591635Y-75039650D01*
X166580077Y-75044437D01*
X166578094Y-75044176D01*
X166577329Y-75042328D01*
X166578369Y-75040825D01*
X166594391Y-75032262D01*
X166613028Y-75016967D01*
X166628323Y-74998330D01*
X166639688Y-74977066D01*
X166646688Y-74953991D01*
X166649051Y-74930000D01*
X166646688Y-74906009D01*
X166639688Y-74882934D01*
X166628323Y-74861670D01*
X166613028Y-74843033D01*
X166594391Y-74827738D01*
X166578369Y-74819175D01*
X166577313Y-74817476D01*
X166578256Y-74815713D01*
X166580077Y-74815563D01*
X166591635Y-74820350D01*
X166697192Y-74841347D01*
X166804808Y-74841347D01*
X166910365Y-74820350D01*
X166921923Y-74815563D01*
X166923906Y-74815824D01*
G37*
G36*
X168193906Y-74815824D02*
G01*
X168194671Y-74817672D01*
X168193631Y-74819175D01*
X168177609Y-74827738D01*
X168158972Y-74843033D01*
X168143677Y-74861670D01*
X168132312Y-74882934D01*
X168125312Y-74906009D01*
X168122949Y-74930000D01*
X168125312Y-74953991D01*
X168132312Y-74977066D01*
X168143677Y-74998330D01*
X168158972Y-75016967D01*
X168177609Y-75032262D01*
X168193631Y-75040825D01*
X168194687Y-75042524D01*
X168193744Y-75044287D01*
X168191923Y-75044437D01*
X168180365Y-75039650D01*
X168074808Y-75018653D01*
X167967192Y-75018653D01*
X167861635Y-75039650D01*
X167850077Y-75044437D01*
X167848094Y-75044176D01*
X167847329Y-75042328D01*
X167848369Y-75040825D01*
X167864391Y-75032262D01*
X167883028Y-75016967D01*
X167898323Y-74998330D01*
X167909688Y-74977066D01*
X167916688Y-74953991D01*
X167919051Y-74930000D01*
X167916688Y-74906009D01*
X167909688Y-74882934D01*
X167898323Y-74861670D01*
X167883028Y-74843033D01*
X167864391Y-74827738D01*
X167848369Y-74819175D01*
X167847313Y-74817476D01*
X167848256Y-74815713D01*
X167850077Y-74815563D01*
X167861635Y-74820350D01*
X167967192Y-74841347D01*
X168074808Y-74841347D01*
X168180365Y-74820350D01*
X168191923Y-74815563D01*
X168193906Y-74815824D01*
G37*
G36*
X165739105Y-74780534D02*
G01*
X165739870Y-74782382D01*
X165738998Y-74783784D01*
X165734670Y-74786676D01*
X165715955Y-74802035D01*
X165700660Y-74820672D01*
X165689295Y-74841935D01*
X165682295Y-74865010D01*
X165679932Y-74889001D01*
X165682295Y-74912993D01*
X165689295Y-74936068D01*
X165700660Y-74957331D01*
X165715956Y-74975968D01*
X165734593Y-74991263D01*
X165755856Y-75002628D01*
X165778931Y-75009628D01*
X165803118Y-75012010D01*
X165804744Y-75013175D01*
X165804548Y-75015165D01*
X165802922Y-75016000D01*
X165159078Y-75016000D01*
X165157346Y-75015000D01*
X165157346Y-75013000D01*
X165158882Y-75012010D01*
X165183069Y-75009628D01*
X165206144Y-75002628D01*
X165227408Y-74991263D01*
X165246045Y-74975968D01*
X165261340Y-74957331D01*
X165272705Y-74936067D01*
X165279705Y-74912992D01*
X165282068Y-74889001D01*
X165279705Y-74865010D01*
X165272705Y-74841935D01*
X165261340Y-74820671D01*
X165246045Y-74802034D01*
X165227330Y-74786676D01*
X165223002Y-74783784D01*
X165222117Y-74781990D01*
X165223228Y-74780327D01*
X165224878Y-74780273D01*
X165321635Y-74820350D01*
X165427192Y-74841347D01*
X165534808Y-74841347D01*
X165640365Y-74820350D01*
X165737122Y-74780273D01*
X165739105Y-74780534D01*
G37*
G36*
X166230287Y-74122256D02*
G01*
X166230437Y-74124077D01*
X166225650Y-74135635D01*
X166204653Y-74241192D01*
X166204653Y-74348808D01*
X166225650Y-74454365D01*
X166230437Y-74465923D01*
X166230176Y-74467906D01*
X166228328Y-74468671D01*
X166226825Y-74467631D01*
X166218262Y-74451609D01*
X166202967Y-74432972D01*
X166184330Y-74417677D01*
X166163066Y-74406312D01*
X166139991Y-74399312D01*
X166116000Y-74396949D01*
X166092009Y-74399312D01*
X166068934Y-74406312D01*
X166047670Y-74417677D01*
X166029033Y-74432972D01*
X166013738Y-74451609D01*
X166005175Y-74467631D01*
X166003476Y-74468687D01*
X166001713Y-74467744D01*
X166001563Y-74465923D01*
X166006350Y-74454365D01*
X166027347Y-74348808D01*
X166027347Y-74241192D01*
X166006350Y-74135635D01*
X166001563Y-74124077D01*
X166001824Y-74122094D01*
X166003672Y-74121329D01*
X166005175Y-74122369D01*
X166013738Y-74138391D01*
X166029033Y-74157028D01*
X166047670Y-74172323D01*
X166068934Y-74183688D01*
X166092009Y-74190688D01*
X166116000Y-74193051D01*
X166139991Y-74190688D01*
X166163066Y-74183688D01*
X166184330Y-74172323D01*
X166202967Y-74157028D01*
X166218262Y-74138391D01*
X166226825Y-74122369D01*
X166228524Y-74121313D01*
X166230287Y-74122256D01*
G37*
G36*
X167500287Y-74122256D02*
G01*
X167500437Y-74124077D01*
X167495650Y-74135635D01*
X167474653Y-74241192D01*
X167474653Y-74348808D01*
X167495650Y-74454365D01*
X167500437Y-74465923D01*
X167500176Y-74467906D01*
X167498328Y-74468671D01*
X167496825Y-74467631D01*
X167488262Y-74451609D01*
X167472967Y-74432972D01*
X167454330Y-74417677D01*
X167433066Y-74406312D01*
X167409991Y-74399312D01*
X167386000Y-74396949D01*
X167362009Y-74399312D01*
X167338934Y-74406312D01*
X167317670Y-74417677D01*
X167299033Y-74432972D01*
X167283738Y-74451609D01*
X167275175Y-74467631D01*
X167273476Y-74468687D01*
X167271713Y-74467744D01*
X167271563Y-74465923D01*
X167276350Y-74454365D01*
X167297347Y-74348808D01*
X167297347Y-74241192D01*
X167276350Y-74135635D01*
X167271563Y-74124077D01*
X167271824Y-74122094D01*
X167273672Y-74121329D01*
X167275175Y-74122369D01*
X167283738Y-74138391D01*
X167299033Y-74157028D01*
X167317670Y-74172323D01*
X167338934Y-74183688D01*
X167362009Y-74190688D01*
X167386000Y-74193051D01*
X167409991Y-74190688D01*
X167433066Y-74183688D01*
X167454330Y-74172323D01*
X167472967Y-74157028D01*
X167488262Y-74138391D01*
X167496825Y-74122369D01*
X167498524Y-74121313D01*
X167500287Y-74122256D01*
G37*
G36*
X167371365Y-65836174D02*
G01*
X167372200Y-65837800D01*
X167372200Y-65919897D01*
X167372190Y-65920093D01*
X167368201Y-65960596D01*
X167368125Y-65960981D01*
X167358099Y-65994033D01*
X167357949Y-65994395D01*
X167341672Y-66024846D01*
X167341454Y-66025172D01*
X167319545Y-66051868D01*
X167319268Y-66052145D01*
X167292572Y-66074054D01*
X167292246Y-66074272D01*
X167261795Y-66090549D01*
X167261433Y-66090699D01*
X167228381Y-66100725D01*
X167227996Y-66100801D01*
X167187493Y-66104790D01*
X167187297Y-66104800D01*
X167105200Y-66104800D01*
X167103468Y-66103800D01*
X167103468Y-66101800D01*
X167105004Y-66100810D01*
X167156504Y-66095738D01*
X167205842Y-66080771D01*
X167251310Y-66056468D01*
X167291162Y-66023762D01*
X167323868Y-65983910D01*
X167348171Y-65938442D01*
X167363138Y-65889104D01*
X167368210Y-65837604D01*
X167369375Y-65835978D01*
X167371365Y-65836174D01*
G37*
G36*
X165270190Y-65837604D02*
G01*
X165275262Y-65889104D01*
X165290229Y-65938442D01*
X165314532Y-65983910D01*
X165347238Y-66023762D01*
X165387090Y-66056468D01*
X165432558Y-66080771D01*
X165481896Y-66095738D01*
X165533396Y-66100810D01*
X165535022Y-66101975D01*
X165534826Y-66103965D01*
X165533200Y-66104800D01*
X165451103Y-66104800D01*
X165450907Y-66104790D01*
X165410404Y-66100801D01*
X165410019Y-66100725D01*
X165376967Y-66090699D01*
X165376605Y-66090549D01*
X165346154Y-66074272D01*
X165345828Y-66074054D01*
X165319132Y-66052145D01*
X165318855Y-66051868D01*
X165296946Y-66025172D01*
X165296728Y-66024846D01*
X165280451Y-65994395D01*
X165280301Y-65994033D01*
X165270275Y-65960981D01*
X165270199Y-65960596D01*
X165266210Y-65920093D01*
X165266200Y-65919897D01*
X165266200Y-65837800D01*
X165267200Y-65836068D01*
X165269200Y-65836068D01*
X165270190Y-65837604D01*
G37*
G36*
X132257787Y-64343256D02*
G01*
X132257937Y-64345077D01*
X132253150Y-64356635D01*
X132232153Y-64462192D01*
X132232153Y-64569808D01*
X132253150Y-64675365D01*
X132257937Y-64686923D01*
X132257676Y-64688906D01*
X132255828Y-64689671D01*
X132254325Y-64688631D01*
X132245762Y-64672609D01*
X132230467Y-64653972D01*
X132211830Y-64638677D01*
X132190566Y-64627312D01*
X132167491Y-64620312D01*
X132143500Y-64617949D01*
X132119509Y-64620312D01*
X132096434Y-64627312D01*
X132075170Y-64638677D01*
X132056533Y-64653972D01*
X132041238Y-64672609D01*
X132032675Y-64688631D01*
X132030976Y-64689687D01*
X132029213Y-64688744D01*
X132029063Y-64686923D01*
X132033850Y-64675365D01*
X132054847Y-64569808D01*
X132054847Y-64462192D01*
X132033850Y-64356635D01*
X132029063Y-64345077D01*
X132029324Y-64343094D01*
X132031172Y-64342329D01*
X132032675Y-64343369D01*
X132041238Y-64359391D01*
X132056533Y-64378028D01*
X132075170Y-64393323D01*
X132096434Y-64404688D01*
X132119509Y-64411688D01*
X132143500Y-64414051D01*
X132167491Y-64411688D01*
X132190566Y-64404688D01*
X132211830Y-64393323D01*
X132230467Y-64378028D01*
X132245762Y-64359391D01*
X132254325Y-64343369D01*
X132256024Y-64342313D01*
X132257787Y-64343256D01*
G37*
G36*
X128447787Y-64343256D02*
G01*
X128447937Y-64345077D01*
X128443150Y-64356635D01*
X128422153Y-64462192D01*
X128422153Y-64569808D01*
X128443150Y-64675365D01*
X128447937Y-64686923D01*
X128447676Y-64688906D01*
X128445828Y-64689671D01*
X128444325Y-64688631D01*
X128435762Y-64672609D01*
X128420467Y-64653972D01*
X128401830Y-64638677D01*
X128380566Y-64627312D01*
X128357491Y-64620312D01*
X128333500Y-64617949D01*
X128309509Y-64620312D01*
X128286434Y-64627312D01*
X128265170Y-64638677D01*
X128246533Y-64653972D01*
X128231238Y-64672609D01*
X128222675Y-64688631D01*
X128220976Y-64689687D01*
X128219213Y-64688744D01*
X128219063Y-64686923D01*
X128223850Y-64675365D01*
X128244847Y-64569808D01*
X128244847Y-64462192D01*
X128223850Y-64356635D01*
X128219063Y-64345077D01*
X128219324Y-64343094D01*
X128221172Y-64342329D01*
X128222675Y-64343369D01*
X128231238Y-64359391D01*
X128246533Y-64378028D01*
X128265170Y-64393323D01*
X128286434Y-64404688D01*
X128309509Y-64411688D01*
X128333500Y-64414051D01*
X128357491Y-64411688D01*
X128380566Y-64404688D01*
X128401830Y-64393323D01*
X128420467Y-64378028D01*
X128435762Y-64359391D01*
X128444325Y-64343369D01*
X128446024Y-64342313D01*
X128447787Y-64343256D01*
G37*
G36*
X129717787Y-64343256D02*
G01*
X129717937Y-64345077D01*
X129713150Y-64356635D01*
X129692153Y-64462192D01*
X129692153Y-64569808D01*
X129713150Y-64675365D01*
X129717937Y-64686923D01*
X129717676Y-64688906D01*
X129715828Y-64689671D01*
X129714325Y-64688631D01*
X129705762Y-64672609D01*
X129690467Y-64653972D01*
X129671830Y-64638677D01*
X129650566Y-64627312D01*
X129627491Y-64620312D01*
X129603500Y-64617949D01*
X129579509Y-64620312D01*
X129556434Y-64627312D01*
X129535170Y-64638677D01*
X129516533Y-64653972D01*
X129501238Y-64672609D01*
X129492675Y-64688631D01*
X129490976Y-64689687D01*
X129489213Y-64688744D01*
X129489063Y-64686923D01*
X129493850Y-64675365D01*
X129514847Y-64569808D01*
X129514847Y-64462192D01*
X129493850Y-64356635D01*
X129489063Y-64345077D01*
X129489324Y-64343094D01*
X129491172Y-64342329D01*
X129492675Y-64343369D01*
X129501238Y-64359391D01*
X129516533Y-64378028D01*
X129535170Y-64393323D01*
X129556434Y-64404688D01*
X129579509Y-64411688D01*
X129603500Y-64414051D01*
X129627491Y-64411688D01*
X129650566Y-64404688D01*
X129671830Y-64393323D01*
X129690467Y-64378028D01*
X129705762Y-64359391D01*
X129714325Y-64343369D01*
X129716024Y-64342313D01*
X129717787Y-64343256D01*
G37*
G36*
X130987787Y-64343256D02*
G01*
X130987937Y-64345077D01*
X130983150Y-64356635D01*
X130962153Y-64462192D01*
X130962153Y-64569808D01*
X130983150Y-64675365D01*
X130987937Y-64686923D01*
X130987676Y-64688906D01*
X130985828Y-64689671D01*
X130984325Y-64688631D01*
X130975762Y-64672609D01*
X130960467Y-64653972D01*
X130941830Y-64638677D01*
X130920566Y-64627312D01*
X130897491Y-64620312D01*
X130873500Y-64617949D01*
X130849509Y-64620312D01*
X130826434Y-64627312D01*
X130805170Y-64638677D01*
X130786533Y-64653972D01*
X130771238Y-64672609D01*
X130762675Y-64688631D01*
X130760976Y-64689687D01*
X130759213Y-64688744D01*
X130759063Y-64686923D01*
X130763850Y-64675365D01*
X130784847Y-64569808D01*
X130784847Y-64462192D01*
X130763850Y-64356635D01*
X130759063Y-64345077D01*
X130759324Y-64343094D01*
X130761172Y-64342329D01*
X130762675Y-64343369D01*
X130771238Y-64359391D01*
X130786533Y-64378028D01*
X130805170Y-64393323D01*
X130826434Y-64404688D01*
X130849509Y-64411688D01*
X130873500Y-64414051D01*
X130897491Y-64411688D01*
X130920566Y-64404688D01*
X130941830Y-64393323D01*
X130960467Y-64378028D01*
X130975762Y-64359391D01*
X130984325Y-64343369D01*
X130986024Y-64342313D01*
X130987787Y-64343256D01*
G37*
G36*
X165534932Y-64299800D02*
G01*
X165534932Y-64301800D01*
X165533396Y-64302790D01*
X165481896Y-64307862D01*
X165432558Y-64322829D01*
X165387090Y-64347132D01*
X165347238Y-64379838D01*
X165314532Y-64419690D01*
X165290229Y-64465158D01*
X165275262Y-64514496D01*
X165270190Y-64565996D01*
X165269025Y-64567622D01*
X165267035Y-64567426D01*
X165266200Y-64565800D01*
X165266200Y-64483703D01*
X165266210Y-64483507D01*
X165270199Y-64443004D01*
X165270275Y-64442619D01*
X165280301Y-64409567D01*
X165280451Y-64409205D01*
X165296728Y-64378754D01*
X165296946Y-64378428D01*
X165318855Y-64351732D01*
X165319132Y-64351455D01*
X165345828Y-64329546D01*
X165346154Y-64329328D01*
X165376605Y-64313051D01*
X165376967Y-64312901D01*
X165410019Y-64302875D01*
X165410404Y-64302799D01*
X165450907Y-64298810D01*
X165451103Y-64298800D01*
X165533200Y-64298800D01*
X165534932Y-64299800D01*
G37*
G36*
X167187493Y-64298810D02*
G01*
X167227996Y-64302799D01*
X167228381Y-64302875D01*
X167261433Y-64312901D01*
X167261795Y-64313051D01*
X167292246Y-64329328D01*
X167292572Y-64329546D01*
X167319268Y-64351455D01*
X167319545Y-64351732D01*
X167341454Y-64378428D01*
X167341672Y-64378754D01*
X167357949Y-64409205D01*
X167358099Y-64409567D01*
X167368125Y-64442619D01*
X167368201Y-64443004D01*
X167372190Y-64483507D01*
X167372200Y-64483703D01*
X167372200Y-64565800D01*
X167371200Y-64567532D01*
X167369200Y-64567532D01*
X167368210Y-64565996D01*
X167363138Y-64514496D01*
X167348171Y-64465158D01*
X167323868Y-64419690D01*
X167291162Y-64379838D01*
X167251310Y-64347132D01*
X167205842Y-64322829D01*
X167156504Y-64307862D01*
X167105004Y-64302790D01*
X167103378Y-64301625D01*
X167103574Y-64299635D01*
X167105200Y-64298800D01*
X167187297Y-64298800D01*
X167187493Y-64298810D01*
G37*
G36*
X133102154Y-63796000D02*
G01*
X133102154Y-63798000D01*
X133100618Y-63798990D01*
X133076431Y-63801372D01*
X133053356Y-63808372D01*
X133032092Y-63819737D01*
X133013455Y-63835032D01*
X132998160Y-63853669D01*
X132986795Y-63874933D01*
X132979795Y-63898008D01*
X132977432Y-63921998D01*
X132979795Y-63945990D01*
X132986795Y-63969065D01*
X132998160Y-63990329D01*
X133013455Y-64008966D01*
X133032170Y-64024324D01*
X133036498Y-64027216D01*
X133037383Y-64029010D01*
X133036272Y-64030673D01*
X133034622Y-64030727D01*
X132937865Y-63990650D01*
X132832308Y-63969653D01*
X132724692Y-63969653D01*
X132619135Y-63990650D01*
X132522378Y-64030727D01*
X132520395Y-64030466D01*
X132519630Y-64028618D01*
X132520502Y-64027216D01*
X132524830Y-64024324D01*
X132543545Y-64008965D01*
X132558840Y-63990328D01*
X132570205Y-63969065D01*
X132577205Y-63945990D01*
X132579568Y-63921998D01*
X132577205Y-63898007D01*
X132570205Y-63874932D01*
X132558840Y-63853669D01*
X132543544Y-63835032D01*
X132524907Y-63819737D01*
X132503644Y-63808372D01*
X132480569Y-63801372D01*
X132456382Y-63798990D01*
X132454756Y-63797825D01*
X132454952Y-63795835D01*
X132456578Y-63795000D01*
X133100422Y-63795000D01*
X133102154Y-63796000D01*
G37*
G36*
X131681406Y-63766824D02*
G01*
X131682171Y-63768672D01*
X131681131Y-63770175D01*
X131665109Y-63778738D01*
X131646472Y-63794033D01*
X131631177Y-63812670D01*
X131619812Y-63833934D01*
X131612812Y-63857009D01*
X131610449Y-63881000D01*
X131612812Y-63904991D01*
X131619812Y-63928066D01*
X131631177Y-63949330D01*
X131646472Y-63967967D01*
X131665109Y-63983262D01*
X131681131Y-63991825D01*
X131682187Y-63993524D01*
X131681244Y-63995287D01*
X131679423Y-63995437D01*
X131667865Y-63990650D01*
X131562308Y-63969653D01*
X131454692Y-63969653D01*
X131349135Y-63990650D01*
X131337577Y-63995437D01*
X131335594Y-63995176D01*
X131334829Y-63993328D01*
X131335869Y-63991825D01*
X131351891Y-63983262D01*
X131370528Y-63967967D01*
X131385823Y-63949330D01*
X131397188Y-63928066D01*
X131404188Y-63904991D01*
X131406551Y-63881000D01*
X131404188Y-63857009D01*
X131397188Y-63833934D01*
X131385823Y-63812670D01*
X131370528Y-63794033D01*
X131351891Y-63778738D01*
X131335869Y-63770175D01*
X131334813Y-63768476D01*
X131335756Y-63766713D01*
X131337577Y-63766563D01*
X131349135Y-63771350D01*
X131454692Y-63792347D01*
X131562308Y-63792347D01*
X131667865Y-63771350D01*
X131679423Y-63766563D01*
X131681406Y-63766824D01*
G37*
G36*
X127871406Y-63766824D02*
G01*
X127872171Y-63768672D01*
X127871131Y-63770175D01*
X127855109Y-63778738D01*
X127836472Y-63794033D01*
X127821177Y-63812670D01*
X127809812Y-63833934D01*
X127802812Y-63857009D01*
X127800449Y-63881000D01*
X127802812Y-63904991D01*
X127809812Y-63928066D01*
X127821177Y-63949330D01*
X127836472Y-63967967D01*
X127855109Y-63983262D01*
X127871131Y-63991825D01*
X127872187Y-63993524D01*
X127871244Y-63995287D01*
X127869423Y-63995437D01*
X127857865Y-63990650D01*
X127752308Y-63969653D01*
X127644692Y-63969653D01*
X127539135Y-63990650D01*
X127527577Y-63995437D01*
X127525594Y-63995176D01*
X127524829Y-63993328D01*
X127525869Y-63991825D01*
X127541891Y-63983262D01*
X127560528Y-63967967D01*
X127575823Y-63949330D01*
X127587188Y-63928066D01*
X127594188Y-63904991D01*
X127596551Y-63881000D01*
X127594188Y-63857009D01*
X127587188Y-63833934D01*
X127575823Y-63812670D01*
X127560528Y-63794033D01*
X127541891Y-63778738D01*
X127525869Y-63770175D01*
X127524813Y-63768476D01*
X127525756Y-63766713D01*
X127527577Y-63766563D01*
X127539135Y-63771350D01*
X127644692Y-63792347D01*
X127752308Y-63792347D01*
X127857865Y-63771350D01*
X127869423Y-63766563D01*
X127871406Y-63766824D01*
G37*
G36*
X130411406Y-63766824D02*
G01*
X130412171Y-63768672D01*
X130411131Y-63770175D01*
X130395109Y-63778738D01*
X130376472Y-63794033D01*
X130361177Y-63812670D01*
X130349812Y-63833934D01*
X130342812Y-63857009D01*
X130340449Y-63881000D01*
X130342812Y-63904991D01*
X130349812Y-63928066D01*
X130361177Y-63949330D01*
X130376472Y-63967967D01*
X130395109Y-63983262D01*
X130411131Y-63991825D01*
X130412187Y-63993524D01*
X130411244Y-63995287D01*
X130409423Y-63995437D01*
X130397865Y-63990650D01*
X130292308Y-63969653D01*
X130184692Y-63969653D01*
X130079135Y-63990650D01*
X130067577Y-63995437D01*
X130065594Y-63995176D01*
X130064829Y-63993328D01*
X130065869Y-63991825D01*
X130081891Y-63983262D01*
X130100528Y-63967967D01*
X130115823Y-63949330D01*
X130127188Y-63928066D01*
X130134188Y-63904991D01*
X130136551Y-63881000D01*
X130134188Y-63857009D01*
X130127188Y-63833934D01*
X130115823Y-63812670D01*
X130100528Y-63794033D01*
X130081891Y-63778738D01*
X130065869Y-63770175D01*
X130064813Y-63768476D01*
X130065756Y-63766713D01*
X130067577Y-63766563D01*
X130079135Y-63771350D01*
X130184692Y-63792347D01*
X130292308Y-63792347D01*
X130397865Y-63771350D01*
X130409423Y-63766563D01*
X130411406Y-63766824D01*
G37*
G36*
X129141406Y-63766824D02*
G01*
X129142171Y-63768672D01*
X129141131Y-63770175D01*
X129125109Y-63778738D01*
X129106472Y-63794033D01*
X129091177Y-63812670D01*
X129079812Y-63833934D01*
X129072812Y-63857009D01*
X129070449Y-63881000D01*
X129072812Y-63904991D01*
X129079812Y-63928066D01*
X129091177Y-63949330D01*
X129106472Y-63967967D01*
X129125109Y-63983262D01*
X129141131Y-63991825D01*
X129142187Y-63993524D01*
X129141244Y-63995287D01*
X129139423Y-63995437D01*
X129127865Y-63990650D01*
X129022308Y-63969653D01*
X128914692Y-63969653D01*
X128809135Y-63990650D01*
X128797577Y-63995437D01*
X128795594Y-63995176D01*
X128794829Y-63993328D01*
X128795869Y-63991825D01*
X128811891Y-63983262D01*
X128830528Y-63967967D01*
X128845823Y-63949330D01*
X128857188Y-63928066D01*
X128864188Y-63904991D01*
X128866551Y-63881000D01*
X128864188Y-63857009D01*
X128857188Y-63833934D01*
X128845823Y-63812670D01*
X128830528Y-63794033D01*
X128811891Y-63778738D01*
X128795869Y-63770175D01*
X128794813Y-63768476D01*
X128795756Y-63766713D01*
X128797577Y-63766563D01*
X128809135Y-63771350D01*
X128914692Y-63792347D01*
X129022308Y-63792347D01*
X129127865Y-63771350D01*
X129139423Y-63766563D01*
X129141406Y-63766824D01*
G37*
G36*
X132228665Y-62922452D02*
G01*
X132229500Y-62924078D01*
X132229500Y-63567922D01*
X132228500Y-63569654D01*
X132226500Y-63569654D01*
X132225510Y-63568118D01*
X132223128Y-63543931D01*
X132216128Y-63520856D01*
X132204763Y-63499592D01*
X132189468Y-63480955D01*
X132170831Y-63465660D01*
X132149567Y-63454295D01*
X132126492Y-63447295D01*
X132102501Y-63444932D01*
X132078510Y-63447295D01*
X132055435Y-63454295D01*
X132034171Y-63465660D01*
X132015534Y-63480955D01*
X132000176Y-63499670D01*
X131997284Y-63503998D01*
X131995490Y-63504883D01*
X131993827Y-63503772D01*
X131993773Y-63502122D01*
X132033850Y-63405365D01*
X132054847Y-63299808D01*
X132054847Y-63192192D01*
X132033850Y-63086635D01*
X131993773Y-62989878D01*
X131994034Y-62987895D01*
X131995882Y-62987130D01*
X131997284Y-62988002D01*
X132000176Y-62992330D01*
X132015535Y-63011045D01*
X132034172Y-63026340D01*
X132055435Y-63037705D01*
X132078510Y-63044705D01*
X132102502Y-63047068D01*
X132126493Y-63044705D01*
X132149568Y-63037705D01*
X132170831Y-63026340D01*
X132189468Y-63011044D01*
X132204763Y-62992407D01*
X132216128Y-62971144D01*
X132223128Y-62948069D01*
X132225510Y-62923882D01*
X132226675Y-62922256D01*
X132228665Y-62922452D01*
G37*
G36*
X128447787Y-63073256D02*
G01*
X128447937Y-63075077D01*
X128443150Y-63086635D01*
X128422153Y-63192192D01*
X128422153Y-63299808D01*
X128443150Y-63405365D01*
X128447937Y-63416923D01*
X128447676Y-63418906D01*
X128445828Y-63419671D01*
X128444325Y-63418631D01*
X128435762Y-63402609D01*
X128420467Y-63383972D01*
X128401830Y-63368677D01*
X128380566Y-63357312D01*
X128357491Y-63350312D01*
X128333500Y-63347949D01*
X128309509Y-63350312D01*
X128286434Y-63357312D01*
X128265170Y-63368677D01*
X128246533Y-63383972D01*
X128231238Y-63402609D01*
X128222675Y-63418631D01*
X128220976Y-63419687D01*
X128219213Y-63418744D01*
X128219063Y-63416923D01*
X128223850Y-63405365D01*
X128244847Y-63299808D01*
X128244847Y-63192192D01*
X128223850Y-63086635D01*
X128219063Y-63075077D01*
X128219324Y-63073094D01*
X128221172Y-63072329D01*
X128222675Y-63073369D01*
X128231238Y-63089391D01*
X128246533Y-63108028D01*
X128265170Y-63123323D01*
X128286434Y-63134688D01*
X128309509Y-63141688D01*
X128333500Y-63144051D01*
X128357491Y-63141688D01*
X128380566Y-63134688D01*
X128401830Y-63123323D01*
X128420467Y-63108028D01*
X128435762Y-63089391D01*
X128444325Y-63073369D01*
X128446024Y-63072313D01*
X128447787Y-63073256D01*
G37*
G36*
X130987787Y-63073256D02*
G01*
X130987937Y-63075077D01*
X130983150Y-63086635D01*
X130962153Y-63192192D01*
X130962153Y-63299808D01*
X130983150Y-63405365D01*
X130987937Y-63416923D01*
X130987676Y-63418906D01*
X130985828Y-63419671D01*
X130984325Y-63418631D01*
X130975762Y-63402609D01*
X130960467Y-63383972D01*
X130941830Y-63368677D01*
X130920566Y-63357312D01*
X130897491Y-63350312D01*
X130873500Y-63347949D01*
X130849509Y-63350312D01*
X130826434Y-63357312D01*
X130805170Y-63368677D01*
X130786533Y-63383972D01*
X130771238Y-63402609D01*
X130762675Y-63418631D01*
X130760976Y-63419687D01*
X130759213Y-63418744D01*
X130759063Y-63416923D01*
X130763850Y-63405365D01*
X130784847Y-63299808D01*
X130784847Y-63192192D01*
X130763850Y-63086635D01*
X130759063Y-63075077D01*
X130759324Y-63073094D01*
X130761172Y-63072329D01*
X130762675Y-63073369D01*
X130771238Y-63089391D01*
X130786533Y-63108028D01*
X130805170Y-63123323D01*
X130826434Y-63134688D01*
X130849509Y-63141688D01*
X130873500Y-63144051D01*
X130897491Y-63141688D01*
X130920566Y-63134688D01*
X130941830Y-63123323D01*
X130960467Y-63108028D01*
X130975762Y-63089391D01*
X130984325Y-63073369D01*
X130986024Y-63072313D01*
X130987787Y-63073256D01*
G37*
G36*
X129717787Y-63073256D02*
G01*
X129717937Y-63075077D01*
X129713150Y-63086635D01*
X129692153Y-63192192D01*
X129692153Y-63299808D01*
X129713150Y-63405365D01*
X129717937Y-63416923D01*
X129717676Y-63418906D01*
X129715828Y-63419671D01*
X129714325Y-63418631D01*
X129705762Y-63402609D01*
X129690467Y-63383972D01*
X129671830Y-63368677D01*
X129650566Y-63357312D01*
X129627491Y-63350312D01*
X129603500Y-63347949D01*
X129579509Y-63350312D01*
X129556434Y-63357312D01*
X129535170Y-63368677D01*
X129516533Y-63383972D01*
X129501238Y-63402609D01*
X129492675Y-63418631D01*
X129490976Y-63419687D01*
X129489213Y-63418744D01*
X129489063Y-63416923D01*
X129493850Y-63405365D01*
X129514847Y-63299808D01*
X129514847Y-63192192D01*
X129493850Y-63086635D01*
X129489063Y-63075077D01*
X129489324Y-63073094D01*
X129491172Y-63072329D01*
X129492675Y-63073369D01*
X129501238Y-63089391D01*
X129516533Y-63108028D01*
X129535170Y-63123323D01*
X129556434Y-63134688D01*
X129579509Y-63141688D01*
X129603500Y-63144051D01*
X129627491Y-63141688D01*
X129650566Y-63134688D01*
X129671830Y-63123323D01*
X129690467Y-63108028D01*
X129705762Y-63089391D01*
X129714325Y-63073369D01*
X129716024Y-63072313D01*
X129717787Y-63073256D01*
G37*
M02*
